# Units: centimetres. Lip diameter 6, height 9, base diameter 3.
mtllib egg-cup.mtl
o EggCup
v 0 9 3
v 0.2940514209886818 9 2.9855541800165906
v 0.5852709660483848 9 2.9423558412096913
v 0.870854031763387 9 2.8708210071966267
v 1.1480502970952693 9 2.77163859753386
v 1.4141902104779929 9 2.6457637930450653
v 1.6667106990588065 9 2.4944088369076356
v 1.9031798524909365 9 2.319031360088211
v 2.1213203435596424 9 2.121320343559643
v 2.3190313600882106 9 1.9031798524909365
v 2.4944088369076356 9 1.666710699058807
v 2.645763793045065 9 1.4141902104779933
v 2.77163859753386 9 1.1480502970952695
v 2.8708210071966267 9 0.870854031763387
v 2.9423558412096913 9 0.585270966048385
v 2.9855541800165906 9 0.2940514209886823
v 3 9 1.8369701987210297e-16
v 2.9855541800165906 9 -0.2940514209886819
v 2.9423558412096913 9 -0.5852709660483846
v 2.8708210071966267 9 -0.8708540317633865
v 2.77163859753386 9 -1.1480502970952693
v 2.6457637930450653 9 -1.414190210477993
v 2.494408836907636 9 -1.6667106990588059
v 2.3190313600882115 9 -1.9031798524909362
v 2.121320343559643 9 -2.1213203435596424
v 1.9031798524909365 9 -2.319031360088211
v 1.6667106990588065 9 -2.494408836907636
v 1.4141902104779935 9 -2.645763793045065
v 1.1480502970952697 9 -2.77163859753386
v 0.8708540317633872 9 -2.8708210071966267
v 0.5852709660483858 9 -2.9423558412096913
v 0.2940514209886825 9 -2.9855541800165906
v 3.6739403974420594e-16 9 -3
v -0.29405142098868176 9 -2.9855541800165906
v -0.585270966048385 9 -2.9423558412096913
v -0.8708540317633864 9 -2.8708210071966267
v -1.148050297095269 9 -2.7716385975338604
v -1.4141902104779929 9 -2.6457637930450653
v -1.6667106990588059 9 -2.4944088369076365
v -1.9031798524909358 9 -2.3190313600882115
v -2.1213203435596424 9 -2.121320343559643
v -2.3190313600882098 9 -1.9031798524909378
v -2.4944088369076356 9 -1.6667106990588065
v -2.645763793045065 9 -1.4141902104779938
v -2.7716385975338595 9 -1.148050297095271
v -2.8708210071966267 9 -0.8708540317633873
v -2.942355841209691 9 -0.585270966048386
v -2.9855541800165906 9 -0.29405142098868137
v -3 9 -5.51091059616309e-16
v -2.9855541800165906 9 0.29405142098868026
v -2.9423558412096913 9 0.5852709660483849
v -2.8708210071966267 9 0.8708540317633862
v -2.77163859753386 9 1.14805029709527
v -2.6457637930450653 9 1.4141902104779929
v -2.4944088369076365 9 1.6667106990588056
v -2.3190313600882106 9 1.9031798524909367
v -2.121320343559643 9 2.121320343559642
v -1.9031798524909378 9 2.3190313600882098
v -1.6667106990588065 9 2.4944088369076356
v -1.4141902104779938 9 2.6457637930450644
v -1.148050297095271 9 2.7716385975338595
v -0.8708540317633875 9 2.8708210071966267
v -0.5852709660483861 9 2.942355841209691
v -0.29405142098868153 9 2.9855541800165906
v 0 8.28 3.1049999999999995
v 0.3043432207232856 8.28 3.0900485763171712
v 0.6057554498600781 8.28 3.04533829565203
v 0.9013339228751054 8.28 2.971299742448508
v 1.1882320574936036 8.28 2.868645948447545
v 1.4636868678447224 8.28 2.738365525801642
v 1.7250455735258645 8.28 2.5817131461994025
v 1.9697911473281189 8.28 2.400197457691298
v 2.1955665555842296 8.28 2.19556655558423
v 2.4001974576912977 8.28 1.9697911473281189
v 2.5817131461994025 8.28 1.7250455735258647
v 2.7383655258016417 8.28 1.463686867844723
v 2.868645948447545 8.28 1.1882320574936038
v 2.971299742448508 8.28 0.9013339228751054
v 3.04533829565203 8.28 0.6057554498600783
v 3.090048576317171 8.28 0.3043432207232861
v 3.1049999999999995 8.28 1.9012641556762657e-16
v 3.0900485763171712 8.28 -0.30434322072328573
v 3.04533829565203 8.28 -0.6057554498600779
v 2.971299742448508 8.28 -0.9013339228751048
v 2.868645948447545 8.28 -1.1882320574936034
v 2.738365525801642 8.28 -1.4636868678447226
v 2.581713146199403 8.28 -1.7250455735258639
v 2.4001974576912986 8.28 -1.9697911473281187
v 2.19556655558423 8.28 -2.1955665555842296
v 1.9697911473281189 8.28 -2.400197457691298
v 1.7250455735258645 8.28 -2.581713146199403
v 1.4636868678447232 8.28 -2.7383655258016417
v 1.1882320574936038 8.28 -2.868645948447545
v 0.9013339228751056 8.28 -2.971299742448508
v 0.6057554498600792 8.28 -3.04533829565203
v 0.30434322072328635 8.28 -3.090048576317171
v 3.8025283113525313e-16 8.28 -3.1049999999999995
v -0.30434322072328557 8.28 -3.0900485763171712
v -0.6057554498600785 8.28 -3.04533829565203
v -0.9013339228751047 8.28 -2.971299742448508
v -1.1882320574936032 8.28 -2.8686459484475453
v -1.4636868678447224 8.28 -2.738365525801642
v -1.7250455735258639 8.28 -2.5817131461994034
v -1.9697911473281182 8.28 -2.4001974576912986
v -2.1955665555842296 8.28 -2.19556655558423
v -2.4001974576912968 8.28 -1.9697911473281202
v -2.5817131461994025 8.28 -1.7250455735258645
v -2.7383655258016417 8.28 -1.4636868678447232
v -2.8686459484475444 8.28 -1.1882320574936054
v -2.971299742448508 8.28 -0.9013339228751057
v -3.0453382956520296 8.28 -0.6057554498600795
v -3.0900485763171712 8.28 -0.3043432207232852
v -3.1049999999999995 8.28 -5.703792467028797e-16
v -3.0900485763171712 8.28 0.304343220723284
v -3.04533829565203 8.28 0.6057554498600783
v -2.971299742448508 8.28 0.9013339228751045
v -2.8686459484475444 8.28 1.1882320574936043
v -2.738365525801642 8.28 1.4636868678447224
v -2.5817131461994034 8.28 1.7250455735258634
v -2.4001974576912977 8.28 1.9697911473281193
v -2.19556655558423 8.28 2.195566555584229
v -1.9697911473281202 8.28 2.4001974576912968
v -1.7250455735258645 8.28 2.5817131461994025
v -1.4636868678447232 8.28 2.7383655258016413
v -1.1882320574936054 8.28 2.8686459484475444
v -0.9013339228751059 8.28 2.971299742448508
v -0.6057554498600796 8.28 3.0453382956520296
v -0.30434322072328535 8.28 3.0900485763171712
v 0 7.2 3.2249999999999996
v 0.3161052775628329 7.2 3.209470743517835
v 0.6291662885020135 7.2 3.163032529300418
v 0.9361680841456409 7.2 3.086132582736373
v 1.2341540693774145 7.2 2.9795114923488994
v 1.5202544762638421 7.2 2.8441960775234447
v 1.791714001488217 7.2 2.681489499675708
v 2.0459183414277566 7.2 2.4929587120948264
v 2.2804193693266153 7.2 2.2804193693266157
v 2.492958712094826 7.2 2.0459183414277566
v 2.681489499675708 7.2 1.7917140014882171
v 2.8441960775234443 7.2 1.5202544762638428
v 2.9795114923488994 7.2 1.2341540693774147
v 3.0861325827363735 7.2 0.9361680841456409
v 3.163032529300418 7.2 0.6291662885020138
v 3.2094707435178345 7.2 0.31610527756283346
v 3.2249999999999996 7.2 1.974742963625107e-16
v 3.209470743517835 7.2 -0.316105277562833
v 3.163032529300418 7.2 -0.6291662885020134
v 3.0861325827363735 7.2 -0.9361680841456403
v 2.9795114923488994 7.2 -1.2341540693774142
v 2.8441960775234447 7.2 -1.5202544762638424
v 2.6814894996757084 7.2 -1.791714001488216
v 2.492958712094827 7.2 -2.045918341427756
v 2.2804193693266157 7.2 -2.2804193693266153
v 2.0459183414277566 7.2 -2.4929587120948264
v 1.791714001488217 7.2 -2.6814894996757084
v 1.520254476263843 7.2 -2.8441960775234443
v 1.2341540693774147 7.2 -2.9795114923488994
v 0.9361680841456411 7.2 -3.086132582736373
v 0.6291662885020147 7.2 -3.163032529300418
v 0.31610527756283363 7.2 -3.2094707435178345
v 3.949485927250214e-16 7.2 -3.2249999999999996
v -0.31610527756283285 7.2 -3.209470743517835
v -0.6291662885020138 7.2 -3.163032529300418
v -0.9361680841456402 7.2 -3.0861325827363735
v -1.234154069377414 7.2 -2.9795114923489
v -1.5202544762638421 7.2 -2.8441960775234447
v -1.791714001488216 7.2 -2.681489499675709
v -2.0459183414277557 7.2 -2.492958712094827
v -2.2804193693266153 7.2 -2.280419369326616
v -2.4929587120948256 7.2 -2.045918341427758
v -2.681489499675708 7.2 -1.791714001488217
v -2.8441960775234443 7.2 -1.520254476263843
v -2.9795114923488986 7.2 -1.2341540693774162
v -3.086132582736373 7.2 -0.9361680841456412
v -3.1630325293004176 7.2 -0.6291662885020148
v -3.209470743517835 7.2 -0.3161052775628324
v -3.2249999999999996 7.2 -5.92422889087532e-16
v -3.209470743517835 7.2 0.31610527756283124
v -3.163032529300418 7.2 0.6291662885020137
v -3.0861325827363735 7.2 0.93616808414564
v -2.979511492348899 7.2 1.2341540693774151
v -2.8441960775234447 7.2 1.5202544762638421
v -2.681489499675709 7.2 1.7917140014882158
v -2.492958712094826 7.2 2.0459183414277566
v -2.280419369326616 7.2 2.280419369326615
v -2.045918341427758 7.2 2.492958712094825
v -1.791714001488217 7.2 2.681489499675708
v -1.520254476263843 7.2 2.844196077523444
v -1.2341540693774165 7.2 2.9795114923488986
v -0.9361680841456415 7.2 3.086132582736373
v -0.6291662885020151 7.2 3.1630325293004176
v -0.3161052775628326 7.2 3.209470743517835
v 0 5.85 3.3000000000000003
v 0.32345656308755 5.85 3.28410959801825
v 0.6437980626532233 5.85 3.2365914253306607
v 0.9579394349397258 5.85 3.1579031079162894
v 1.2628553268047964 5.85 3.0488024572872465
v 1.5556092315257923 5.85 2.910340172349572
v 1.8333817689646874 5.85 2.7438497205983996
v 2.0934978377400304 5.85 2.550934496097032
v 2.3334523779156067 5.85 2.333452377915607
v 2.5509344960970317 5.85 2.0934978377400304
v 2.7438497205983996 5.85 1.8333817689646876
v 2.9103401723495717 5.85 1.555609231525793
v 3.0488024572872465 5.85 1.2628553268047966
v 3.15790310791629 5.85 0.9579394349397258
v 3.2365914253306607 5.85 0.6437980626532236
v 3.28410959801825 5.85 0.32345656308755055
v 3.3000000000000003 5.85 2.020667218593133e-16
v 3.28410959801825 5.85 -0.32345656308755016
v 3.2365914253306607 5.85 -0.643798062653223
v 3.15790310791629 5.85 -0.9579394349397252
v 3.0488024572872465 5.85 -1.2628553268047962
v 2.910340172349572 5.85 -1.5556092315257926
v 2.7438497205984 5.85 -1.8333817689646865
v 2.5509344960970326 5.85 -2.09349783774003
v 2.333452377915607 5.85 -2.3334523779156067
v 2.0934978377400304 5.85 -2.550934496097032
v 1.8333817689646874 5.85 -2.7438497205984
v 1.555609231525793 5.85 -2.9103401723495717
v 1.2628553268047968 5.85 -3.0488024572872465
v 0.957939434939726 5.85 -3.1579031079162894
v 0.6437980626532245 5.85 -3.2365914253306607
v 0.3234565630875508 5.85 -3.28410959801825
v 4.041334437186266e-16 5.85 -3.3000000000000003
v -0.32345656308755 5.85 -3.28410959801825
v -0.6437980626532236 5.85 -3.2365914253306607
v -0.957939434939725 5.85 -3.15790310791629
v -1.262855326804796 5.85 -3.048802457287247
v -1.5556092315257923 5.85 -2.910340172349572
v -1.8333817689646865 5.85 -2.7438497205984
v -2.0934978377400295 5.85 -2.5509344960970326
v -2.3334523779156067 5.85 -2.3334523779156076
v -2.5509344960970313 5.85 -2.0934978377400317
v -2.7438497205983996 5.85 -1.8333817689646874
v -2.9103401723495717 5.85 -1.5556092315257932
v -3.0488024572872456 5.85 -1.2628553268047982
v -3.1579031079162894 5.85 -0.9579394349397261
v -3.2365914253306602 5.85 -0.6437980626532246
v -3.28410959801825 5.85 -0.3234565630875495
v -3.3000000000000003 5.85 -6.062001655779399e-16
v -3.28410959801825 5.85 0.32345656308754833
v -3.2365914253306607 5.85 0.6437980626532235
v -3.15790310791629 5.85 0.9579394349397249
v -3.048802457287246 5.85 1.262855326804797
v -2.910340172349572 5.85 1.5556092315257921
v -2.7438497205984 5.85 1.8333817689646863
v -2.5509344960970317 5.85 2.093497837740031
v -2.3334523779156076 5.85 2.3334523779156062
v -2.0934978377400317 5.85 2.550934496097031
v -1.8333817689646874 5.85 2.7438497205983996
v -1.5556092315257932 5.85 2.910340172349571
v -1.2628553268047984 5.85 3.0488024572872456
v -0.9579394349397263 5.85 3.1579031079162894
v -0.6437980626532248 5.85 3.2365914253306602
v -0.3234565630875497 5.85 3.28410959801825
v 0 4.5 3.3000000000000003
v 0.32345656308755 4.5 3.28410959801825
v 0.6437980626532233 4.5 3.2365914253306607
v 0.9579394349397258 4.5 3.1579031079162894
v 1.2628553268047964 4.5 3.0488024572872465
v 1.5556092315257923 4.5 2.910340172349572
v 1.8333817689646874 4.5 2.7438497205983996
v 2.0934978377400304 4.5 2.550934496097032
v 2.3334523779156067 4.5 2.333452377915607
v 2.5509344960970317 4.5 2.0934978377400304
v 2.7438497205983996 4.5 1.8333817689646876
v 2.9103401723495717 4.5 1.555609231525793
v 3.0488024572872465 4.5 1.2628553268047966
v 3.15790310791629 4.5 0.9579394349397258
v 3.2365914253306607 4.5 0.6437980626532236
v 3.28410959801825 4.5 0.32345656308755055
v 3.3000000000000003 4.5 2.020667218593133e-16
v 3.28410959801825 4.5 -0.32345656308755016
v 3.2365914253306607 4.5 -0.643798062653223
v 3.15790310791629 4.5 -0.9579394349397252
v 3.0488024572872465 4.5 -1.2628553268047962
v 2.910340172349572 4.5 -1.5556092315257926
v 2.7438497205984 4.5 -1.8333817689646865
v 2.5509344960970326 4.5 -2.09349783774003
v 2.333452377915607 4.5 -2.3334523779156067
v 2.0934978377400304 4.5 -2.550934496097032
v 1.8333817689646874 4.5 -2.7438497205984
v 1.555609231525793 4.5 -2.9103401723495717
v 1.2628553268047968 4.5 -3.0488024572872465
v 0.957939434939726 4.5 -3.1579031079162894
v 0.6437980626532245 4.5 -3.2365914253306607
v 0.3234565630875508 4.5 -3.28410959801825
v 4.041334437186266e-16 4.5 -3.3000000000000003
v -0.32345656308755 4.5 -3.28410959801825
v -0.6437980626532236 4.5 -3.2365914253306607
v -0.957939434939725 4.5 -3.15790310791629
v -1.262855326804796 4.5 -3.048802457287247
v -1.5556092315257923 4.5 -2.910340172349572
v -1.8333817689646865 4.5 -2.7438497205984
v -2.0934978377400295 4.5 -2.5509344960970326
v -2.3334523779156067 4.5 -2.3334523779156076
v -2.5509344960970313 4.5 -2.0934978377400317
v -2.7438497205983996 4.5 -1.8333817689646874
v -2.9103401723495717 4.5 -1.5556092315257932
v -3.0488024572872456 4.5 -1.2628553268047982
v -3.1579031079162894 4.5 -0.9579394349397261
v -3.2365914253306602 4.5 -0.6437980626532246
v -3.28410959801825 4.5 -0.3234565630875495
v -3.3000000000000003 4.5 -6.062001655779399e-16
v -3.28410959801825 4.5 0.32345656308754833
v -3.2365914253306607 4.5 0.6437980626532235
v -3.15790310791629 4.5 0.9579394349397249
v -3.048802457287246 4.5 1.262855326804797
v -2.910340172349572 4.5 1.5556092315257921
v -2.7438497205984 4.5 1.8333817689646863
v -2.5509344960970317 4.5 2.093497837740031
v -2.3334523779156076 4.5 2.3334523779156062
v -2.0934978377400317 4.5 2.550934496097031
v -1.8333817689646874 4.5 2.7438497205983996
v -1.5556092315257932 4.5 2.910340172349571
v -1.2628553268047984 4.5 3.0488024572872456
v -0.9579394349397263 4.5 3.1579031079162894
v -0.6437980626532248 4.5 3.2365914253306602
v -0.3234565630875497 4.5 3.28410959801825
v 0 3.33 3.18
v 0.3116945062480027 3.33 3.1646874308175863
v 0.6203872240112879 3.33 3.1188971916822728
v 0.9231052736691903 3.33 3.043070267628424
v 1.2169333149209856 3.33 2.937936913385892
v 1.4990416231066725 3.33 2.804509620627769
v 1.766713341002335 3.33 2.644073367122094
v 2.0173706436403926 3.33 2.458173241693504
v 2.248599564173221 3.33 2.2485995641732215
v 2.4581732416935034 3.33 2.0173706436403926
v 2.644073367122094 3.33 1.7667133410023355
v 2.8045096206277687 3.33 1.4990416231066732
v 2.937936913385892 3.33 1.2169333149209858
v 3.0430702676284245 3.33 0.9231052736691903
v 3.1188971916822728 3.33 0.6203872240112881
v 3.164687430817586 3.33 0.31169450624800327
v 3.18 3.33 1.9471884106442917e-16
v 3.1646874308175863 3.33 -0.3116945062480029
v 3.1188971916822728 3.33 -0.6203872240112877
v 3.0430702676284245 3.33 -0.9231052736691897
v 2.937936913385892 3.33 -1.2169333149209853
v 2.804509620627769 3.33 -1.4990416231066728
v 2.644073367122094 3.33 -1.7667133410023343
v 2.4581732416935043 3.33 -2.017370643640392
v 2.2485995641732215 3.33 -2.248599564173221
v 2.0173706436403926 3.33 -2.458173241693504
v 1.766713341002335 3.33 -2.644073367122094
v 1.4990416231066732 3.33 -2.8045096206277687
v 1.216933314920986 3.33 -2.937936913385892
v 0.9231052736691905 3.33 -3.043070267628424
v 0.620387224011289 3.33 -3.1188971916822728
v 0.31169450624800343 3.33 -3.164687430817586
v 3.8943768212885835e-16 3.33 -3.18
v -0.3116945062480027 3.33 -3.1646874308175863
v -0.6203872240112882 3.33 -3.1188971916822728
v -0.9231052736691896 3.33 -3.0430702676284245
v -1.216933314920985 3.33 -2.9379369133858924
v -1.4990416231066725 3.33 -2.804509620627769
v -1.7667133410023343 3.33 -2.6440733671220946
v -2.017370643640392 3.33 -2.4581732416935043
v -2.248599564173221 3.33 -2.248599564173222
v -2.4581732416935025 3.33 -2.017370643640394
v -2.644073367122094 3.33 -1.766713341002335
v -2.8045096206277687 3.33 -1.4990416231066734
v -2.9379369133858915 3.33 -1.2169333149209873
v -3.043070267628424 3.33 -0.9231052736691906
v -3.1188971916822728 3.33 -0.6203872240112892
v -3.1646874308175863 3.33 -0.31169450624800227
v -3.18 3.33 -5.841565231932875e-16
v -3.1646874308175863 3.33 0.3116945062480011
v -3.1188971916822728 3.33 0.620387224011288
v -3.0430702676284245 3.33 0.9231052736691894
v -2.9379369133858915 3.33 1.2169333149209862
v -2.804509620627769 3.33 1.4990416231066723
v -2.6440733671220946 3.33 1.766713341002334
v -2.4581732416935034 3.33 2.017370643640393
v -2.248599564173222 3.33 2.2485995641732206
v -2.017370643640394 3.33 2.4581732416935025
v -1.766713341002335 3.33 2.644073367122094
v -1.4990416231066734 3.33 2.8045096206277687
v -1.2169333149209876 3.33 2.9379369133858915
v -0.9231052736691908 3.33 3.043070267628424
v -0.6203872240112893 3.33 3.1188971916822728
v -0.31169450624800243 3.33 3.1646874308175863
v 0 2.25 2.91
v 0.28522987835902136 2.25 2.8959875546160934
v 0.5677128370669332 2.25 2.854085165973401
v 0.8447284108104854 2.25 2.784696376980728
v 1.1136087881824113 2.25 2.6884894396078445
v 1.3717645041636533 2.25 2.566390879253713
v 1.6167093780870425 2.25 2.4195765718004068
v 1.8460844569162085 2.25 2.249460419285565
v 2.057680733252853 2.25 2.0576807332528535
v 2.2494604192855645 2.25 1.8460844569162085
v 2.4195765718004068 2.25 1.6167093780870427
v 2.566390879253713 2.25 1.3717645041636537
v 2.6884894396078445 2.25 1.1136087881824115
v 2.7846963769807282 2.25 0.8447284108104854
v 2.854085165973401 2.25 0.5677128370669334
v 2.895987554616093 2.25 0.28522987835902186
v 2.91 2.25 1.781861092759399e-16
v 2.8959875546160934 2.25 -0.28522987835902147
v 2.854085165973401 2.25 -0.5677128370669331
v 2.7846963769807282 2.25 -0.8447284108104849
v 2.6884894396078445 2.25 -1.113608788182411
v 2.566390879253713 2.25 -1.3717645041636535
v 2.419576571800407 2.25 -1.6167093780870418
v 2.249460419285565 2.25 -1.846084456916208
v 2.0576807332528535 2.25 -2.057680733252853
v 1.8460844569162085 2.25 -2.249460419285565
v 1.6167093780870425 2.25 -2.419576571800407
v 1.371764504163654 2.25 -2.566390879253713
v 1.1136087881824117 2.25 -2.6884894396078445
v 0.8447284108104856 2.25 -2.784696376980728
v 0.5677128370669343 2.25 -2.854085165973401
v 0.285229878359022 2.25 -2.895987554616093
v 3.563722185518798e-16 2.25 -2.91
v -0.2852298783590213 2.25 -2.8959875546160934
v -0.5677128370669335 2.25 -2.854085165973401
v -0.8447284108104848 2.25 -2.7846963769807282
v -1.113608788182411 2.25 -2.688489439607845
v -1.3717645041636533 2.25 -2.566390879253713
v -1.6167093780870418 2.25 -2.419576571800407
v -1.8460844569162078 2.25 -2.249460419285565
v -2.057680733252853 2.25 -2.057680733252854
v -2.2494604192855636 2.25 -1.8460844569162098
v -2.4195765718004068 2.25 -1.6167093780870425
v -2.566390879253713 2.25 -1.371764504163654
v -2.688489439607844 2.25 -1.113608788182413
v -2.784696376980728 2.25 -0.8447284108104858
v -2.8540851659734003 2.25 -0.5677128370669344
v -2.8959875546160934 2.25 -0.2852298783590209
v -2.91 2.25 -5.345583278278197e-16
v -2.8959875546160934 2.25 0.28522987835901986
v -2.854085165973401 2.25 0.5677128370669334
v -2.7846963769807282 2.25 0.8447284108104847
v -2.688489439607844 2.25 1.113608788182412
v -2.566390879253713 2.25 1.371764504163653
v -2.419576571800407 2.25 1.6167093780870414
v -2.2494604192855645 2.25 1.8460844569162087
v -2.057680733252854 2.25 2.057680733252853
v -1.8460844569162098 2.25 2.2494604192855636
v -1.6167093780870425 2.25 2.4195765718004068
v -1.371764504163654 2.25 2.5663908792537127
v -1.113608788182413 2.25 2.688489439607844
v -0.8447284108104859 2.25 2.784696376980728
v -0.5677128370669347 2.25 2.8540851659734003
v -0.2852298783590211 2.25 2.8959875546160934
v 0 1.3500000000000005 2.52
v 0.24700319363049272 1.3500000000000005 2.5078655112139363
v 0.4916276114806432 1.3500000000000005 2.471578906616141
v 0.7315173866812451 1.3500000000000005 2.4114896460451662
v 0.9643622495600263 1.3500000000000005 2.3281764219284424
v 1.1879197768015142 1.3500000000000005 2.2224415861578546
v 1.4000369872093974 1.3500000000000005 2.095303423002414
v 1.5986710760923866 1.3500000000000005 1.9479863424740973
v 1.7819090885900997 1.3500000000000005 1.7819090885900999
v 1.9479863424740969 1.3500000000000005 1.5986710760923866
v 2.095303423002414 1.3500000000000005 1.4000369872093978
v 2.2224415861578546 1.3500000000000005 1.1879197768015144
v 2.3281764219284424 1.3500000000000005 0.9643622495600264
v 2.4114896460451667 1.3500000000000005 0.7315173866812451
v 2.471578906616141 1.3500000000000005 0.4916276114806434
v 2.507865511213936 1.3500000000000005 0.24700319363049314
v 2.52 1.3500000000000005 1.543054966925665e-16
v 2.5078655112139363 1.3500000000000005 -0.24700319363049283
v 2.471578906616141 1.3500000000000005 -0.49162761148064305
v 2.4114896460451667 1.3500000000000005 -0.7315173866812447
v 2.3281764219284424 1.3500000000000005 -0.9643622495600261
v 2.2224415861578546 1.3500000000000005 -1.1879197768015142
v 2.0953034230024143 1.3500000000000005 -1.400036987209397
v 1.9479863424740975 1.3500000000000005 -1.5986710760923863
v 1.7819090885900999 1.3500000000000005 -1.7819090885900997
v 1.5986710760923866 1.3500000000000005 -1.9479863424740973
v 1.4000369872093974 1.3500000000000005 -2.0953034230024143
v 1.1879197768015146 1.3500000000000005 -2.2224415861578546
v 0.9643622495600266 1.3500000000000005 -2.3281764219284424
v 0.7315173866812452 1.3500000000000005 -2.4114896460451662
v 0.4916276114806441 1.3500000000000005 -2.471578906616141
v 0.24700319363049328 1.3500000000000005 -2.507865511213936
v 3.08610993385133e-16 1.3500000000000005 -2.52
v -0.2470031936304927 1.3500000000000005 -2.5078655112139363
v -0.4916276114806435 1.3500000000000005 -2.471578906616141
v -0.7315173866812446 1.3500000000000005 -2.4114896460451667
v -0.964362249560026 1.3500000000000005 -2.328176421928443
v -1.1879197768015142 1.3500000000000005 -2.2224415861578546
v -1.400036987209397 1.3500000000000005 -2.095303423002415
v -1.5986710760923861 1.3500000000000005 -1.9479863424740975
v -1.7819090885900997 1.3500000000000005 -1.7819090885901
v -1.9479863424740964 1.3500000000000005 -1.5986710760923877
v -2.095303423002414 1.3500000000000005 -1.4000369872093974
v -2.2224415861578546 1.3500000000000005 -1.1879197768015148
v -2.328176421928442 1.3500000000000005 -0.9643622495600277
v -2.4114896460451662 1.3500000000000005 -0.7315173866812453
v -2.4715789066161404 1.3500000000000005 -0.4916276114806442
v -2.5078655112139363 1.3500000000000005 -0.24700319363049233
v -2.52 1.3500000000000005 -4.629164900776995e-16
v -2.5078655112139363 1.3500000000000005 0.24700319363049142
v -2.471578906616141 1.3500000000000005 0.4916276114806433
v -2.4114896460451667 1.3500000000000005 0.7315173866812443
v -2.3281764219284424 1.3500000000000005 0.9643622495600268
v -2.2224415861578546 1.3500000000000005 1.187919776801514
v -2.095303423002415 1.3500000000000005 1.4000369872093967
v -1.9479863424740969 1.3500000000000005 1.598671076092387
v -1.7819090885901 1.3500000000000005 1.7819090885900994
v -1.5986710760923877 1.3500000000000005 1.9479863424740962
v -1.4000369872093974 1.3500000000000005 2.095303423002414
v -1.1879197768015148 1.3500000000000005 2.222441586157854
v -0.9643622495600278 1.3500000000000005 2.328176421928442
v -0.7315173866812456 1.3500000000000005 2.4114896460451662
v -0.4916276114806444 1.3500000000000005 2.4715789066161404
v -0.24700319363049247 1.3500000000000005 2.5078655112139363
v 0 0.629999999999999 2.04
v 0.19995496627230364 0.629999999999999 2.0301768424112816
v 0.3979842569129016 0.629999999999999 2.00080197202259
v 0.5921807415991032 0.629999999999999 1.952158284893706
v 0.7806742020247832 0.629999999999999 1.884714246323025
v 0.9616493431250352 0.629999999999999 1.7991193792706444
v 1.1333632753599885 0.629999999999999 1.6961980090971922
v 1.294162299693837 0.629999999999999 1.5769413248599835
v 1.442497833620557 0.629999999999999 1.4424978336205572
v 1.5769413248599833 0.629999999999999 1.294162299693837
v 1.6961980090971922 0.629999999999999 1.1333632753599887
v 1.7991193792706441 0.629999999999999 0.9616493431250356
v 1.884714246323025 0.629999999999999 0.7806742020247833
v 1.9521582848937062 0.629999999999999 0.5921807415991032
v 2.00080197202259 0.629999999999999 0.3979842569129018
v 2.0301768424112816 0.629999999999999 0.19995496627230397
v 2.04 0.629999999999999 1.2491397351303002e-16
v 2.0301768424112816 0.629999999999999 -0.19995496627230372
v 2.00080197202259 0.629999999999999 -0.3979842569129015
v 1.9521582848937062 0.629999999999999 -0.5921807415991028
v 1.884714246323025 0.629999999999999 -0.7806742020247831
v 1.7991193792706444 0.629999999999999 -0.9616493431250354
v 1.6961980090971924 0.629999999999999 -1.133363275359988
v 1.5769413248599837 0.629999999999999 -1.2941622996938367
v 1.4424978336205572 0.629999999999999 -1.442497833620557
v 1.294162299693837 0.629999999999999 -1.5769413248599835
v 1.1333632753599885 0.629999999999999 -1.6961980090971924
v 0.9616493431250357 0.629999999999999 -1.7991193792706441
v 0.7806742020247834 0.629999999999999 -1.884714246323025
v 0.5921807415991033 0.629999999999999 -1.952158284893706
v 0.39798425691290235 0.629999999999999 -2.00080197202259
v 0.19995496627230408 0.629999999999999 -2.0301768424112816
v 2.4982794702606004e-16 0.629999999999999 -2.04
v -0.1999549662723036 0.629999999999999 -2.0301768424112816
v -0.39798425691290185 0.629999999999999 -2.00080197202259
v -0.5921807415991027 0.629999999999999 -1.9521582848937062
v -0.780674202024783 0.629999999999999 -1.8847142463230253
v -0.9616493431250352 0.629999999999999 -1.7991193792706444
v -1.133363275359988 0.629999999999999 -1.6961980090971929
v -1.2941622996938364 0.629999999999999 -1.5769413248599837
v -1.442497833620557 0.629999999999999 -1.4424978336205574
v -1.5769413248599828 0.629999999999999 -1.2941622996938378
v -1.6961980090971922 0.629999999999999 -1.1333632753599885
v -1.7991193792706441 0.629999999999999 -0.9616493431250358
v -1.8847142463230244 0.629999999999999 -0.7806742020247843
v -1.952158284893706 0.629999999999999 -0.5921807415991034
v -2.00080197202259 0.629999999999999 -0.39798425691290246
v -2.0301768424112816 0.629999999999999 -0.19995496627230333
v -2.04 0.629999999999999 -3.7474192053909004e-16
v -2.0301768424112816 0.629999999999999 0.19995496627230258
v -2.00080197202259 0.629999999999999 0.39798425691290173
v -1.9521582848937062 0.629999999999999 0.5921807415991026
v -1.8847142463230246 0.629999999999999 0.7806742020247837
v -1.7991193792706444 0.629999999999999 0.9616493431250351
v -1.6961980090971929 0.629999999999999 1.1333632753599878
v -1.5769413248599833 0.629999999999999 1.2941622996938371
v -1.4424978336205574 0.629999999999999 1.4424978336205567
v -1.2941622996938378 0.629999999999999 1.5769413248599826
v -1.1333632753599885 0.629999999999999 1.6961980090971922
v -0.9616493431250358 0.629999999999999 1.799119379270644
v -0.7806742020247844 0.629999999999999 1.8847142463230244
v -0.5921807415991035 0.629999999999999 1.952158284893706
v -0.3979842569129026 0.629999999999999 2.00080197202259
v -0.19995496627230344 0.629999999999999 2.0301768424112816
v 0 0 1.5
v 0.1470257104943409 0 1.4927770900082953
v 0.2926354830241924 0 1.4711779206048456
v 0.4354270158816935 0 1.4354105035983133
v 0.5740251485476346 0 1.38581929876693
v 0.7070951052389964 0 1.3228818965225326
v 0.8333553495294033 0 1.2472044184538178
v 0.9515899262454682 0 1.1595156800441055
v 1.0606601717798212 0 1.0606601717798214
v 1.1595156800441053 0 0.9515899262454682
v 1.2472044184538178 0 0.8333553495294035
v 1.3228818965225324 0 0.7070951052389967
v 1.38581929876693 0 0.5740251485476348
v 1.4354105035983133 0 0.4354270158816935
v 1.4711779206048456 0 0.2926354830241925
v 1.4927770900082953 0 0.14702571049434116
v 1.5 0 9.184850993605148e-17
v 1.4927770900082953 0 -0.14702571049434096
v 1.4711779206048456 0 -0.2926354830241923
v 1.4354105035983133 0 -0.43542701588169325
v 1.38581929876693 0 -0.5740251485476346
v 1.3228818965225326 0 -0.7070951052389965
v 1.247204418453818 0 -0.8333553495294029
v 1.1595156800441058 0 -0.9515899262454681
v 1.0606601717798214 0 -1.0606601717798212
v 0.9515899262454682 0 -1.1595156800441055
v 0.8333553495294033 0 -1.247204418453818
v 0.7070951052389968 0 -1.3228818965225324
v 0.5740251485476349 0 -1.38581929876693
v 0.4354270158816936 0 -1.4354105035983133
v 0.2926354830241929 0 -1.4711779206048456
v 0.14702571049434124 0 -1.4927770900082953
v 1.8369701987210297e-16 0 -1.5
v -0.14702571049434088 0 -1.4927770900082953
v -0.2926354830241925 0 -1.4711779206048456
v -0.4354270158816932 0 -1.4354105035983133
v -0.5740251485476345 0 -1.3858192987669302
v -0.7070951052389964 0 -1.3228818965225326
v -0.8333553495294029 0 -1.2472044184538182
v -0.9515899262454679 0 -1.1595156800441058
v -1.0606601717798212 0 -1.0606601717798214
v -1.1595156800441049 0 -0.9515899262454689
v -1.2472044184538178 0 -0.8333553495294033
v -1.3228818965225324 0 -0.7070951052389969
v -1.3858192987669298 0 -0.5740251485476355
v -1.4354105035983133 0 -0.43542701588169364
v -1.4711779206048454 0 -0.292635483024193
v -1.4927770900082953 0 -0.14702571049434068
v -1.5 0 -2.755455298081545e-16
v -1.4927770900082953 0 0.14702571049434013
v -1.4711779206048456 0 0.29263548302419246
v -1.4354105035983133 0 0.4354270158816931
v -1.38581929876693 0 0.574025148547635
v -1.3228818965225326 0 0.7070951052389964
v -1.2472044184538182 0 0.8333553495294028
v -1.1595156800441053 0 0.9515899262454683
v -1.0606601717798214 0 1.060660171779821
v -0.9515899262454689 0 1.1595156800441049
v -0.8333553495294033 0 1.2472044184538178
v -0.7070951052389969 0 1.3228818965225322
v -0.5740251485476355 0 1.3858192987669298
v -0.43542701588169375 0 1.4354105035983133
v -0.29263548302419307 0 1.4711779206048454
v -0.14702571049434077 0 1.4927770900082953
v 0 9 2.92
v 0.28621004976231695 9 2.905939401882815
v 0.5696637402870944 9 2.863893018777433
v 0.84763125758303 9 2.7942657803380495
v 1.1174356225060622 9 2.697728234932957
v 1.3764784715319132 9 2.5752100918971967
v 1.6222650804172383 9 2.427891267923432
v 1.8524283897578449 9 2.257190523819192
v 2.0647518010647183 9 2.064751801064719
v 2.2571905238191916 9 1.8524283897578449
v 2.427891267923432 9 1.6222650804172387
v 2.5752100918971963 9 1.3764784715319136
v 2.697728234932957 9 1.1174356225060622
v 2.79426578033805 9 0.84763125758303
v 2.863893018777433 9 0.5696637402870948
v 2.9059394018828146 9 0.28621004976231745
v 2.92 9 1.7879843267551357e-16
v 2.905939401882815 9 -0.28621004976231706
v 2.863893018777433 9 -0.5696637402870943
v 2.79426578033805 9 -0.8476312575830295
v 2.697728234932957 9 -1.117435622506062
v 2.5752100918971967 9 -1.3764784715319132
v 2.4278912679234326 9 -1.6222650804172376
v 2.2571905238191925 9 -1.8524283897578444
v 2.064751801064719 9 -2.0647518010647183
v 1.8524283897578449 9 -2.257190523819192
v 1.6222650804172383 9 -2.4278912679234326
v 1.3764784715319138 9 -2.5752100918971963
v 1.1174356225060624 9 -2.697728234932957
v 0.8476312575830302 9 -2.7942657803380495
v 0.5696637402870955 9 -2.863893018777433
v 0.2862100497623176 9 -2.9059394018828146
v 3.5759686535102713e-16 9 -2.92
v -0.2862100497623169 9 -2.905939401882815
v -0.5696637402870948 9 -2.863893018777433
v -0.8476312575830294 9 -2.79426578033805
v -1.1174356225060618 9 -2.6977282349329577
v -1.3764784715319132 9 -2.5752100918971967
v -1.6222650804172376 9 -2.4278912679234326
v -1.8524283897578442 9 -2.2571905238191925
v -2.0647518010647183 9 -2.0647518010647192
v -2.257190523819191 9 -1.8524283897578462
v -2.427891267923432 9 -1.6222650804172383
v -2.5752100918971963 9 -1.3764784715319138
v -2.6977282349329568 9 -1.1174356225060638
v -2.7942657803380495 9 -0.8476312575830303
v -2.8638930187774325 9 -0.5696637402870957
v -2.905939401882815 9 -0.2862100497623165
v -2.92 9 -5.363952980265407e-16
v -2.905939401882815 9 0.28621004976231545
v -2.863893018777433 9 0.5696637402870947
v -2.79426578033805 9 0.8476312575830292
v -2.6977282349329568 9 1.1174356225060629
v -2.5752100918971967 9 1.376478471531913
v -2.4278912679234326 9 1.6222650804172374
v -2.2571905238191916 9 1.852428389757845
v -2.0647518010647192 9 2.0647518010647183
v -1.8524283897578462 9 2.2571905238191907
v -1.6222650804172383 9 2.427891267923432
v -1.3764784715319138 9 2.575210091897196
v -1.117435622506064 9 2.6977282349329568
v -0.8476312575830305 9 2.7942657803380495
v -0.5696637402870959 9 2.8638930187774325
v -0.2862100497623167 9 2.905939401882815
v 0 8.28 3.0249999999999995
v 0.29650184949692077 8.28 3.0104337981833953
v 0.5901482240987879 8.28 2.9668754732197717
v 0.8781111486947484 8.28 2.8947445155899314
v 1.1576173829043963 8.28 2.794735585846642
v 1.4259751288986426 8.28 2.6678118246537736
v 1.6805999548842963 8.28 2.515195577215199
v 1.9190396845950273 8.28 2.338356621422279
v 2.1389980130893056 8.28 2.138998013089306
v 2.3383566214222786 8.28 1.9190396845950273
v 2.515195577215199 8.28 1.6805999548842967
v 2.667811824653773 8.28 1.425975128898643
v 2.794735585846642 8.28 1.1576173829043965
v 2.8947445155899314 8.28 0.8781111486947484
v 2.9668754732197717 8.28 0.5901482240987881
v 3.010433798183395 8.28 0.29650184949692127
v 3.0249999999999995 8.28 1.8522782837103714e-16
v 3.0104337981833953 8.28 -0.2965018494969209
v 2.9668754732197717 8.28 -0.5901482240987876
v 2.8947445155899314 8.28 -0.8781111486947479
v 2.794735585846642 8.28 -1.1576173829043963
v 2.6678118246537736 8.28 -1.4259751288986429
v 2.515195577215199 8.28 -1.6805999548842956
v 2.3383566214222795 8.28 -1.9190396845950268
v 2.138998013089306 8.28 -2.1389980130893056
v 1.9190396845950273 8.28 -2.338356621422279
v 1.6805999548842963 8.28 -2.515195577215199
v 1.4259751288986433 8.28 -2.667811824653773
v 1.1576173829043968 8.28 -2.794735585846642
v 0.8781111486947486 8.28 -2.8947445155899314
v 0.590148224098789 8.28 -2.9668754732197717
v 0.29650184949692143 8.28 -3.010433798183395
v 3.704556567420743e-16 8.28 -3.0249999999999995
v -0.2965018494969207 8.28 -3.0104337981833953
v -0.5901482240987882 8.28 -2.9668754732197717
v -0.8781111486947477 8.28 -2.8947445155899314
v -1.157617382904396 8.28 -2.794735585846642
v -1.4259751288986426 8.28 -2.6678118246537736
v -1.6805999548842956 8.28 -2.5151955772151995
v -1.9190396845950266 8.28 -2.3383566214222795
v -2.1389980130893056 8.28 -2.1389980130893065
v -2.338356621422278 8.28 -1.9190396845950286
v -2.515195577215199 8.28 -1.6805999548842963
v -2.667811824653773 8.28 -1.4259751288986435
v -2.794735585846641 8.28 -1.157617382904398
v -2.8947445155899314 8.28 -0.8781111486947487
v -2.9668754732197713 8.28 -0.5901482240987891
v -3.0104337981833953 8.28 -0.2965018494969203
v -3.0249999999999995 8.28 -5.556834851131114e-16
v -3.0104337981833953 8.28 0.2965018494969192
v -2.9668754732197717 8.28 0.590148224098788
v -2.8947445155899314 8.28 0.8781111486947476
v -2.7947355858466416 8.28 1.157617382904397
v -2.6678118246537736 8.28 1.4259751288986424
v -2.5151955772151995 8.28 1.6805999548842954
v -2.3383566214222786 8.28 1.9190396845950275
v -2.1389980130893065 8.28 2.138998013089305
v -1.9190396845950286 8.28 2.3383566214222777
v -1.6805999548842963 8.28 2.515195577215199
v -1.4259751288986435 8.28 2.6678118246537728
v -1.1576173829043983 8.28 2.794735585846641
v -0.8781111486947489 8.28 2.8947445155899314
v -0.5901482240987893 8.28 2.9668754732197713
v -0.2965018494969205 8.28 3.0104337981833953
v 0 7.2 3.1449999999999996
v 0.30826390633646805 7.2 3.129855965384059
v 0.6135590627407232 7.2 3.0845697068681592
v 0.9129453099652839 7.2 3.0095773558777963
v 1.2035393947882072 7.2 2.9056011297479962
v 1.4825427373177624 7.2 2.773642376375576
v 1.7472683828466486 7.2 2.6149719306915045
v 1.9951668786946648 7.2 2.4311178758258074
v 2.2238508268316917 7.2 2.2238508268316917
v 2.431117875825807 7.2 1.9951668786946648
v 2.6149719306915045 7.2 1.7472683828466489
v 2.7736423763755758 7.2 1.4825427373177629
v 2.9056011297479962 7.2 1.2035393947882074
v 3.0095773558777967 7.2 0.9129453099652839
v 3.0845697068681592 7.2 0.6135590627407235
v 3.1298559653840585 7.2 0.3082639063364686
v 3.1449999999999996 7.2 1.9257570916592127e-16
v 3.129855965384059 7.2 -0.30826390633646816
v 3.0845697068681592 7.2 -0.6135590627407231
v 3.0095773558777967 7.2 -0.9129453099652833
v 2.9056011297479962 7.2 -1.203539394788207
v 2.773642376375576 7.2 -1.4825427373177626
v 2.614971930691505 7.2 -1.747268382846648
v 2.431117875825808 7.2 -1.9951668786946644
v 2.2238508268316917 7.2 -2.2238508268316917
v 1.9951668786946648 7.2 -2.4311178758258074
v 1.7472683828466486 7.2 -2.614971930691505
v 1.482542737317763 7.2 -2.7736423763755758
v 1.2035393947882076 7.2 -2.9056011297479962
v 0.9129453099652841 7.2 -3.0095773558777963
v 0.6135590627407244 7.2 -3.0845697068681592
v 0.3082639063364688 7.2 -3.1298559653840585
v 3.8515141833184253e-16 7.2 -3.1449999999999996
v -0.308263906336468 7.2 -3.129855965384059
v -0.6135590627407236 7.2 -3.0845697068681592
v -0.9129453099652832 7.2 -3.0095773558777967
v -1.203539394788207 7.2 -2.9056011297479967
v -1.4825427373177624 7.2 -2.773642376375576
v -1.747268382846648 7.2 -2.614971930691505
v -1.9951668786946641 7.2 -2.431117875825808
v -2.2238508268316917 7.2 -2.223850826831692
v -2.4311178758258065 7.2 -1.9951668786946661
v -2.6149719306915045 7.2 -1.7472683828466486
v -2.7736423763755758 7.2 -1.4825427373177633
v -2.905601129747996 7.2 -1.203539394788209
v -3.0095773558777963 7.2 -0.9129453099652842
v -3.084569706868159 7.2 -0.6135590627407246
v -3.129855965384059 7.2 -0.30826390633646755
v -3.1449999999999996 7.2 -5.777271274977637e-16
v -3.129855965384059 7.2 0.30826390633646644
v -3.0845697068681592 7.2 0.6135590627407235
v -3.0095773558777967 7.2 0.912945309965283
v -2.9056011297479962 7.2 1.2035393947882078
v -2.773642376375576 7.2 1.4825427373177622
v -2.614971930691505 7.2 1.7472683828466475
v -2.431117875825807 7.2 1.9951668786946652
v -2.223850826831692 7.2 2.223850826831691
v -1.9951668786946661 7.2 2.431117875825806
v -1.7472683828466486 7.2 2.6149719306915045
v -1.4825427373177633 7.2 2.7736423763755758
v -1.2035393947882091 7.2 2.905601129747996
v -0.9129453099652844 7.2 3.0095773558777963
v -0.6135590627407247 7.2 3.084569706868159
v -0.3082639063364678 7.2 3.129855965384059
v 0 5.85 3.22
v 0.31561519186118514 5.85 3.2044948198844745
v 0.628190836891933 5.85 3.1581286028984024
v 0.9347166607593688 5.85 3.0813478810577126
v 1.232240652215589 5.85 2.9748920946863433
v 1.5178974925797124 5.85 2.8397864712017036
v 1.7889361503231191 5.85 2.6773321516141957
v 2.0427463750069386 5.85 2.489093659828013
v 2.276883835420683 5.85 2.2768838354206835
v 2.489093659828013 5.85 2.0427463750069386
v 2.6773321516141957 5.85 1.7889361503231194
v 2.839786471201703 5.85 1.517897492579713
v 2.9748920946863433 5.85 1.2322406522155893
v 3.081347881057713 5.85 0.9347166607593688
v 3.1581286028984024 5.85 0.6281908368919332
v 3.204494819884474 5.85 0.3156151918611857
v 3.22 5.85 1.9716813466272387e-16
v 3.2044948198844745 5.85 -0.3156151918611853
v 3.1581286028984024 5.85 -0.6281908368919328
v 3.081347881057713 5.85 -0.9347166607593682
v 2.9748920946863433 5.85 -1.232240652215589
v 2.8397864712017036 5.85 -1.5178974925797126
v 2.677332151614196 5.85 -1.7889361503231185
v 2.4890936598280136 5.85 -2.042746375006938
v 2.2768838354206835 5.85 -2.276883835420683
v 2.0427463750069386 5.85 -2.489093659828013
v 1.7889361503231191 5.85 -2.677332151614196
v 1.5178974925797133 5.85 -2.839786471201703
v 1.2322406522155895 5.85 -2.9748920946863433
v 0.934716660759369 5.85 -3.0813478810577126
v 0.6281908368919341 5.85 -3.1581286028984024
v 0.31561519186118586 5.85 -3.204494819884474
v 3.9433626932544775e-16 5.85 -3.22
v -0.31561519186118514 5.85 -3.2044948198844745
v -0.6281908368919333 5.85 -3.1581286028984024
v -0.9347166607593681 5.85 -3.081347881057713
v -1.2322406522155889 5.85 -2.9748920946863437
v -1.5178974925797124 5.85 -2.8397864712017036
v -1.7889361503231185 5.85 -2.6773321516141966
v -2.0427463750069377 5.85 -2.4890936598280136
v -2.276883835420683 5.85 -2.2768838354206835
v -2.4890936598280122 5.85 -2.04274637500694
v -2.6773321516141957 5.85 -1.7889361503231191
v -2.839786471201703 5.85 -1.5178974925797133
v -2.974892094686343 5.85 -1.2322406522155909
v -3.0813478810577126 5.85 -0.9347166607593691
v -3.158128602898402 5.85 -0.6281908368919343
v -3.2044948198844745 5.85 -0.3156151918611847
v -3.22 5.85 -5.915044039881715e-16
v -3.2044948198844745 5.85 0.31561519186118353
v -3.1581286028984024 5.85 0.6281908368919332
v -3.081347881057713 5.85 0.9347166607593679
v -2.9748920946863433 5.85 1.23224065221559
v -2.8397864712017036 5.85 1.5178974925797124
v -2.6773321516141966 5.85 1.788936150323118
v -2.489093659828013 5.85 2.042746375006939
v -2.2768838354206835 5.85 2.2768838354206826
v -2.04274637500694 5.85 2.489093659828012
v -1.7889361503231191 5.85 2.6773321516141957
v -1.5178974925797133 5.85 2.8397864712017027
v -1.232240652215591 5.85 2.974892094686343
v -0.9347166607593693 5.85 3.0813478810577126
v -0.6281908368919346 5.85 3.158128602898402
v -0.31561519186118486 5.85 3.2044948198844745
v 0 4.5 3.22
v 0.31561519186118514 4.5 3.2044948198844745
v 0.628190836891933 4.5 3.1581286028984024
v 0.9347166607593688 4.5 3.0813478810577126
v 1.232240652215589 4.5 2.9748920946863433
v 1.5178974925797124 4.5 2.8397864712017036
v 1.7889361503231191 4.5 2.6773321516141957
v 2.0427463750069386 4.5 2.489093659828013
v 2.276883835420683 4.5 2.2768838354206835
v 2.489093659828013 4.5 2.0427463750069386
v 2.6773321516141957 4.5 1.7889361503231194
v 2.839786471201703 4.5 1.517897492579713
v 2.9748920946863433 4.5 1.2322406522155893
v 3.081347881057713 4.5 0.9347166607593688
v 3.1581286028984024 4.5 0.6281908368919332
v 3.204494819884474 4.5 0.3156151918611857
v 3.22 4.5 1.9716813466272387e-16
v 3.2044948198844745 4.5 -0.3156151918611853
v 3.1581286028984024 4.5 -0.6281908368919328
v 3.081347881057713 4.5 -0.9347166607593682
v 2.9748920946863433 4.5 -1.232240652215589
v 2.8397864712017036 4.5 -1.5178974925797126
v 2.677332151614196 4.5 -1.7889361503231185
v 2.4890936598280136 4.5 -2.042746375006938
v 2.2768838354206835 4.5 -2.276883835420683
v 2.0427463750069386 4.5 -2.489093659828013
v 1.7889361503231191 4.5 -2.677332151614196
v 1.5178974925797133 4.5 -2.839786471201703
v 1.2322406522155895 4.5 -2.9748920946863433
v 0.934716660759369 4.5 -3.0813478810577126
v 0.6281908368919341 4.5 -3.1581286028984024
v 0.31561519186118586 4.5 -3.204494819884474
v 3.9433626932544775e-16 4.5 -3.22
v -0.31561519186118514 4.5 -3.2044948198844745
v -0.6281908368919333 4.5 -3.1581286028984024
v -0.9347166607593681 4.5 -3.081347881057713
v -1.2322406522155889 4.5 -2.9748920946863437
v -1.5178974925797124 4.5 -2.8397864712017036
v -1.7889361503231185 4.5 -2.6773321516141966
v -2.0427463750069377 4.5 -2.4890936598280136
v -2.276883835420683 4.5 -2.2768838354206835
v -2.4890936598280122 4.5 -2.04274637500694
v -2.6773321516141957 4.5 -1.7889361503231191
v -2.839786471201703 4.5 -1.5178974925797133
v -2.974892094686343 4.5 -1.2322406522155909
v -3.0813478810577126 4.5 -0.9347166607593691
v -3.158128602898402 4.5 -0.6281908368919343
v -3.2044948198844745 4.5 -0.3156151918611847
v -3.22 4.5 -5.915044039881715e-16
v -3.2044948198844745 4.5 0.31561519186118353
v -3.1581286028984024 4.5 0.6281908368919332
v -3.081347881057713 4.5 0.9347166607593679
v -2.9748920946863433 4.5 1.23224065221559
v -2.8397864712017036 4.5 1.5178974925797124
v -2.6773321516141966 4.5 1.788936150323118
v -2.489093659828013 4.5 2.042746375006939
v -2.2768838354206835 4.5 2.2768838354206826
v -2.04274637500694 4.5 2.489093659828012
v -1.7889361503231191 4.5 2.6773321516141957
v -1.5178974925797133 4.5 2.8397864712017027
v -1.232240652215591 4.5 2.974892094686343
v -0.9347166607593693 4.5 3.0813478810577126
v -0.6281908368919346 4.5 3.158128602898402
v -0.31561519186118486 4.5 3.2044948198844745
v 0 3.33 3.1
v 0.30385313502163785 3.33 3.0850726526838104
v 0.6047799982499976 3.33 3.0404343692500144
v 0.8998824994888333 3.33 2.9665150407698473
v 1.1863186403317783 3.33 2.864026550784989
v 1.4613298841605928 3.33 2.7339559194799006
v 1.7222677223607668 3.33 2.5775557981378903
v 1.966619180907301 3.33 2.396332405424485
v 2.192031021678297 3.33 2.1920310216782974
v 2.3963324054244843 3.33 1.966619180907301
v 2.5775557981378903 3.33 1.7222677223607672
v 2.7339559194799006 3.33 1.4613298841605933
v 2.864026550784989 3.33 1.1863186403317785
v 2.9665150407698477 3.33 0.8998824994888333
v 3.0404343692500144 3.33 0.6047799982499978
v 3.0850726526838104 3.33 0.3038531350216384
v 3.1 3.33 1.8982025386783975e-16
v 3.0850726526838104 3.33 -0.303853135021638
v 3.0404343692500144 3.33 -0.6047799982499974
v 2.9665150407698477 3.33 -0.8998824994888327
v 2.864026550784989 3.33 -1.1863186403317783
v 2.7339559194799006 3.33 -1.4613298841605928
v 2.5775557981378907 3.33 -1.722267722360766
v 2.3963324054244852 3.33 -1.9666191809073008
v 2.1920310216782974 3.33 -2.192031021678297
v 1.966619180907301 3.33 -2.396332405424485
v 1.7222677223607668 3.33 -2.5775557981378907
v 1.4613298841605935 3.33 -2.7339559194799006
v 1.1863186403317787 3.33 -2.864026550784989
v 0.8998824994888335 3.33 -2.9665150407698473
v 0.6047799982499987 3.33 -3.0404343692500144
v 0.3038531350216386 3.33 -3.0850726526838104
v 3.796405077356795e-16 3.33 -3.1
v -0.30385313502163785 3.33 -3.0850726526838104
v -0.604779998249998 3.33 -3.0404343692500144
v -0.8998824994888326 3.33 -2.9665150407698477
v -1.186318640331778 3.33 -2.864026550784989
v -1.4613298841605928 3.33 -2.7339559194799006
v -1.722267722360766 3.33 -2.577555798137891
v -1.9666191809073004 3.33 -2.3963324054244852
v -2.192031021678297 3.33 -2.192031021678298
v -2.396332405424484 3.33 -1.9666191809073024
v -2.5775557981378903 3.33 -1.7222677223607668
v -2.7339559194799006 3.33 -1.4613298841605935
v -2.8640265507849882 3.33 -1.18631864033178
v -2.9665150407698473 3.33 -0.8998824994888336
v -3.040434369250014 3.33 -0.6047799982499988
v -3.0850726526838104 3.33 -0.3038531350216374
v -3.1 3.33 -5.694607616035192e-16
v -3.0850726526838104 3.33 0.3038531350216363
v -3.0404343692500144 3.33 0.6047799982499977
v -2.9665150407698477 3.33 0.8998824994888324
v -2.8640265507849887 3.33 1.1863186403317791
v -2.7339559194799006 3.33 1.4613298841605926
v -2.577555798137891 3.33 1.7222677223607659
v -2.3963324054244843 3.33 1.9666191809073015
v -2.192031021678298 3.33 2.192031021678297
v -1.9666191809073024 3.33 2.3963324054244834
v -1.7222677223607668 3.33 2.5775557981378903
v -1.4613298841605935 3.33 2.7339559194799
v -1.1863186403317802 3.33 2.8640265507849882
v -0.8998824994888338 3.33 2.9665150407698473
v -0.6047799982499991 3.33 3.040434369250014
v -0.3038531350216376 3.33 3.0850726526838104
v 0 2.25 2.83
v 0.2773885071326565 2.25 2.8163727764823174
v 0.552105611305643 2.25 2.775622343541142
v 0.8215056366301284 2.25 2.708141150122151
v 1.0829941135932042 2.25 2.6145790770069417
v 1.3340527652175733 2.25 2.495837178105845
v 1.5722637594454743 2.25 2.3530590028162033
v 1.7953329941831169 2.25 2.187619583016546
v 2.0011121907579295 2.25 2.00111219075793
v 2.1876195830165455 2.25 1.7953329941831169
v 2.3530590028162033 2.25 1.5722637594454745
v 2.4958371781058446 2.25 1.3340527652175738
v 2.6145790770069417 2.25 1.0829941135932042
v 2.7081411501221515 2.25 0.8215056366301284
v 2.775622343541142 2.25 0.5521056113056432
v 2.816372776482317 2.25 0.277388507132657
v 2.83 2.25 1.7328752207935048e-16
v 2.8163727764823174 2.25 -0.2773885071326566
v 2.775622343541142 2.25 -0.5521056113056428
v 2.7081411501221515 2.25 -0.821505636630128
v 2.6145790770069417 2.25 -1.082994113593204
v 2.495837178105845 2.25 -1.3340527652175735
v 2.3530590028162033 2.25 -1.5722637594454736
v 2.187619583016546 2.25 -1.7953329941831164
v 2.00111219075793 2.25 -2.0011121907579295
v 1.7953329941831169 2.25 -2.187619583016546
v 1.5722637594454743 2.25 -2.3530590028162033
v 1.334052765217574 2.25 -2.4958371781058446
v 1.0829941135932044 2.25 -2.6145790770069417
v 0.8215056366301285 2.25 -2.708141150122151
v 0.552105611305644 2.25 -2.775622343541142
v 0.27738850713265717 2.25 -2.816372776482317
v 3.4657504415870095e-16 2.25 -2.83
v -0.2773885071326565 2.25 -2.8163727764823174
v -0.5521056113056433 2.25 -2.775622343541142
v -0.8215056366301278 2.25 -2.7081411501221515
v -1.0829941135932037 2.25 -2.6145790770069417
v -1.3340527652175733 2.25 -2.495837178105845
v -1.5722637594454736 2.25 -2.3530590028162037
v -1.7953329941831162 2.25 -2.187619583016546
v -2.0011121907579295 2.25 -2.00111219075793
v -2.187619583016545 2.25 -1.795332994183118
v -2.3530590028162033 2.25 -1.5722637594454743
v -2.4958371781058446 2.25 -1.3340527652175742
v -2.614579077006941 2.25 -1.0829941135932057
v -2.708141150122151 2.25 -0.8215056366301288
v -2.775622343541142 2.25 -0.5521056113056442
v -2.8163727764823174 2.25 -0.27738850713265606
v -2.83 2.25 -5.198625662380514e-16
v -2.8163727764823174 2.25 0.27738850713265506
v -2.775622343541142 2.25 0.5521056113056431
v -2.7081411501221515 2.25 0.8215056366301277
v -2.6145790770069413 2.25 1.0829941135932046
v -2.495837178105845 2.25 1.334052765217573
v -2.3530590028162037 2.25 1.5722637594454734
v -2.1876195830165455 2.25 1.795332994183117
v -2.00111219075793 2.25 2.001112190757929
v -1.795332994183118 2.25 2.1876195830165446
v -1.5722637594454743 2.25 2.3530590028162033
v -1.3340527652175742 2.25 2.495837178105844
v -1.0829941135932057 2.25 2.614579077006941
v -0.8215056366301289 2.25 2.708141150122151
v -0.5521056113056443 2.25 2.775622343541142
v -0.2773885071326562 2.25 2.8163727764823174
v 0 1.3500000000000005 2.44
v 0.23916182240412787 1.3500000000000005 2.4282507330801604
v 0.4760203857193529 1.3500000000000005 2.393116084183882
v 0.7082946125008881 1.3500000000000005 2.3349344191865895
v 0.9337475749708191 1.3500000000000005 2.2542660593275397
v 1.1502080378554342 1.3500000000000005 2.151887885009986
v 1.3555913685678294 1.3500000000000005 2.0287858540182104
v 1.547919613359295 1.3500000000000005 1.8861455062050783
v 1.7253405460951758 1.3500000000000005 1.725340546095176
v 1.886145506205078 1.3500000000000005 1.547919613359295
v 2.0287858540182104 1.3500000000000005 1.3555913685678296
v 2.151887885009986 1.3500000000000005 1.1502080378554347
v 2.2542660593275397 1.3500000000000005 0.9337475749708192
v 2.33493441918659 1.3500000000000005 0.7082946125008881
v 2.393116084183882 1.3500000000000005 0.4760203857193531
v 2.4282507330801604 1.3500000000000005 0.23916182240412828
v 2.44 1.3500000000000005 1.4940690949597708e-16
v 2.4282507330801604 1.3500000000000005 -0.23916182240412798
v 2.393116084183882 1.3500000000000005 -0.4760203857193528
v 2.33493441918659 1.3500000000000005 -0.7082946125008877
v 2.2542660593275397 1.3500000000000005 -0.933747574970819
v 2.151887885009986 1.3500000000000005 -1.1502080378554345
v 2.0287858540182104 1.3500000000000005 -1.3555913685678287
v 1.8861455062050785 1.3500000000000005 -1.5479196133592947
v 1.725340546095176 1.3500000000000005 -1.7253405460951758
v 1.547919613359295 1.3500000000000005 -1.8861455062050783
v 1.3555913685678294 1.3500000000000005 -2.0287858540182104
v 1.1502080378554347 1.3500000000000005 -2.151887885009986
v 0.9337475749708193 1.3500000000000005 -2.2542660593275397
v 0.7082946125008882 1.3500000000000005 -2.3349344191865895
v 0.4760203857193538 1.3500000000000005 -2.393116084183882
v 0.23916182240412842 1.3500000000000005 -2.4282507330801604
v 2.9881381899195416e-16 1.3500000000000005 -2.44
v -0.23916182240412784 1.3500000000000005 -2.4282507330801604
v -0.4760203857193532 1.3500000000000005 -2.393116084183882
v -0.7082946125008875 1.3500000000000005 -2.33493441918659
v -0.9337475749708187 1.3500000000000005 -2.2542660593275397
v -1.1502080378554342 1.3500000000000005 -2.151887885009986
v -1.3555913685678287 1.3500000000000005 -2.028785854018211
v -1.5479196133592945 1.3500000000000005 -1.8861455062050785
v -1.7253405460951758 1.3500000000000005 -1.7253405460951763
v -1.8861455062050774 1.3500000000000005 -1.547919613359296
v -2.0287858540182104 1.3500000000000005 -1.3555913685678294
v -2.151887885009986 1.3500000000000005 -1.150208037855435
v -2.254266059327539 1.3500000000000005 -0.9337475749708204
v -2.3349344191865895 1.3500000000000005 -0.7082946125008883
v -2.393116084183882 1.3500000000000005 -0.47602038571935396
v -2.4282507330801604 1.3500000000000005 -0.2391618224041275
v -2.44 1.3500000000000005 -4.482207284879312e-16
v -2.4282507330801604 1.3500000000000005 0.23916182240412662
v -2.393116084183882 1.3500000000000005 0.47602038571935307
v -2.33493441918659 1.3500000000000005 0.7082946125008874
v -2.254266059327539 1.3500000000000005 0.9337475749708196
v -2.151887885009986 1.3500000000000005 1.150208037855434
v -2.028785854018211 1.3500000000000005 1.3555913685678285
v -1.886145506205078 1.3500000000000005 1.5479196133592952
v -1.7253405460951763 1.3500000000000005 1.7253405460951754
v -1.547919613359296 1.3500000000000005 1.8861455062050771
v -1.3555913685678294 1.3500000000000005 2.0287858540182104
v -1.150208037855435 1.3500000000000005 2.1518878850099856
v -0.9337475749708205 1.3500000000000005 2.254266059327539
v -0.7082946125008884 1.3500000000000005 2.3349344191865895
v -0.47602038571935407 1.3500000000000005 2.393116084183882
v -0.23916182240412764 1.3500000000000005 2.4282507330801604
v 0 0.629999999999999 1.96
v 0.19211359504593878 0.629999999999999 1.950562064277506
v 0.38237703115161137 0.629999999999999 1.9223391495903317
v 0.5689579674187462 0.629999999999999 1.8756030580351293
v 0.7500595274355759 0.629999999999999 1.8108038837221219
v 0.9239376041789553 0.629999999999999 1.7285656781227758
v 1.0889176567184202 0.629999999999999 1.6296804401129887
v 1.243410836960745 0.629999999999999 1.5151004885909645
v 1.385929291125633 0.629999999999999 1.3859292911256331
v 1.5151004885909642 0.629999999999999 1.243410836960745
v 1.6296804401129887 0.629999999999999 1.0889176567184204
v 1.7285656781227756 0.629999999999999 0.9239376041789557
v 1.8108038837221219 0.629999999999999 0.750059527435576
v 1.8756030580351295 0.629999999999999 0.5689579674187462
v 1.9223391495903317 0.629999999999999 0.38237703115161153
v 1.9505620642775057 0.629999999999999 0.1921135950459391
v 1.96 0.629999999999999 1.2001538631644062e-16
v 1.950562064277506 0.629999999999999 -0.19211359504593886
v 1.9223391495903317 0.629999999999999 -0.38237703115161126
v 1.8756030580351295 0.629999999999999 -0.5689579674187458
v 1.8108038837221219 0.629999999999999 -0.7500595274355758
v 1.7285656781227758 0.629999999999999 -0.9239376041789554
v 1.629680440112989 0.629999999999999 -1.0889176567184198
v 1.5151004885909647 0.629999999999999 -1.2434108369607448
v 1.3859292911256331 0.629999999999999 -1.385929291125633
v 1.243410836960745 0.629999999999999 -1.5151004885909645
v 1.0889176567184202 0.629999999999999 -1.629680440112989
v 0.9239376041789558 0.629999999999999 -1.7285656781227756
v 0.7500595274355761 0.629999999999999 -1.8108038837221219
v 0.5689579674187463 0.629999999999999 -1.8756030580351293
v 0.3823770311516121 0.629999999999999 -1.9223391495903317
v 0.19211359504593922 0.629999999999999 -1.9505620642775057
v 2.4003077263288124e-16 0.629999999999999 -1.96
v -0.19211359504593875 0.629999999999999 -1.950562064277506
v -0.3823770311516116 0.629999999999999 -1.9223391495903317
v -0.5689579674187457 0.629999999999999 -1.8756030580351295
v -0.7500595274355757 0.629999999999999 -1.810803883722122
v -0.9239376041789553 0.629999999999999 -1.7285656781227758
v -1.0889176567184198 0.629999999999999 -1.629680440112989
v -1.2434108369607446 0.629999999999999 -1.5151004885909647
v -1.385929291125633 0.629999999999999 -1.3859292911256333
v -1.5151004885909638 0.629999999999999 -1.243410836960746
v -1.6296804401129887 0.629999999999999 -1.0889176567184202
v -1.7285656781227756 0.629999999999999 -0.9239376041789559
v -1.8108038837221216 0.629999999999999 -0.750059527435577
v -1.8756030580351293 0.629999999999999 -0.5689579674187464
v -1.9223391495903315 0.629999999999999 -0.3823770311516122
v -1.950562064277506 0.629999999999999 -0.19211359504593847
v -1.96 0.629999999999999 -3.6004615894932183e-16
v -1.950562064277506 0.629999999999999 0.19211359504593778
v -1.9223391495903317 0.629999999999999 0.3823770311516115
v -1.8756030580351295 0.629999999999999 0.5689579674187456
v -1.8108038837221219 0.629999999999999 0.7500595274355764
v -1.7285656781227758 0.629999999999999 0.9239376041789552
v -1.629680440112989 0.629999999999999 1.0889176567184196
v -1.5151004885909642 0.629999999999999 1.2434108369607453
v -1.3859292911256333 0.629999999999999 1.3859292911256327
v -1.243410836960746 0.629999999999999 1.5151004885909636
v -1.0889176567184202 0.629999999999999 1.6296804401129887
v -0.9239376041789559 0.629999999999999 1.7285656781227754
v -0.7500595274355771 0.629999999999999 1.8108038837221216
v -0.5689579674187465 0.629999999999999 1.8756030580351293
v -0.38237703115161226 0.629999999999999 1.9223391495903315
v -0.19211359504593858 0.629999999999999 1.950562064277506
v 0 0.08000000000000007 1.42
v 0.13918433926797605 0.08000000000000007 1.4131623118745196
v 0.2770282572629021 0.08000000000000007 1.392715098172587
v 0.4122042417013365 0.08000000000000007 1.3588552767397364
v 0.5434104739584275 0.08000000000000007 1.311908936166027
v 0.6693833662929166 0.08000000000000007 1.252328195374664
v 0.788909730887835 0.08000000000000007 1.180686849469614
v 0.9008384635123765 0.08000000000000007 1.0976748437750865
v 1.0040916292848974 0.08000000000000007 1.0040916292848976
v 1.0976748437750863 0.08000000000000007 0.9008384635123765
v 1.180686849469614 0.08000000000000007 0.7889097308878352
v 1.2523281953746639 0.08000000000000007 0.6693833662929168
v 1.311908936166027 0.08000000000000007 0.5434104739584276
v 1.3588552767397366 0.08000000000000007 0.4122042417013365
v 1.392715098172587 0.08000000000000007 0.2770282572629022
v 1.4131623118745194 0.08000000000000007 0.1391843392679763
v 1.42 0.08000000000000007 8.694992273946207e-17
v 1.4131623118745196 0.08000000000000007 -0.1391843392679761
v 1.392715098172587 0.08000000000000007 -0.27702825726290203
v 1.3588552767397366 0.08000000000000007 -0.41220424170133624
v 1.311908936166027 0.08000000000000007 -0.5434104739584273
v 1.252328195374664 0.08000000000000007 -0.6693833662929167
v 1.1806868494696143 0.08000000000000007 -0.7889097308878348
v 1.0976748437750867 0.08000000000000007 -0.9008384635123764
v 1.0040916292848976 0.08000000000000007 -1.0040916292848974
v 0.9008384635123765 0.08000000000000007 -1.0976748437750865
v 0.788909730887835 0.08000000000000007 -1.1806868494696143
v 0.669383366292917 0.08000000000000007 -1.2523281953746639
v 0.5434104739584277 0.08000000000000007 -1.311908936166027
v 0.41220424170133657 0.08000000000000007 -1.3588552767397364
v 0.2770282572629026 0.08000000000000007 -1.392715098172587
v 0.13918433926797635 0.08000000000000007 -1.4131623118745194
v 1.7389984547892414e-16 0.08000000000000007 -1.42
v -0.13918433926797602 0.08000000000000007 -1.4131623118745196
v -0.27702825726290226 0.08000000000000007 -1.392715098172587
v -0.4122042417013362 0.08000000000000007 -1.3588552767397366
v -0.5434104739584273 0.08000000000000007 -1.3119089361660272
v -0.6693833662929166 0.08000000000000007 -1.252328195374664
v -0.7889097308878348 0.08000000000000007 -1.1806868494696146
v -0.9008384635123763 0.08000000000000007 -1.0976748437750867
v -1.0040916292848974 0.08000000000000007 -1.0040916292848976
v -1.097674843775086 0.08000000000000007 -0.9008384635123772
v -1.180686849469614 0.08000000000000007 -0.788909730887835
v -1.2523281953746639 0.08000000000000007 -0.6693833662929171
v -1.3119089361660268 0.08000000000000007 -0.5434104739584282
v -1.3588552767397364 0.08000000000000007 -0.4122042417013366
v -1.3927150981725869 0.08000000000000007 -0.2770282572629027
v -1.4131623118745196 0.08000000000000007 -0.13918433926797583
v -1.42 0.08000000000000007 -2.608497682183862e-16
v -1.4131623118745196 0.08000000000000007 0.13918433926797533
v -1.392715098172587 0.08000000000000007 0.2770282572629022
v -1.3588552767397366 0.08000000000000007 0.41220424170133607
v -1.311908936166027 0.08000000000000007 0.5434104739584278
v -1.252328195374664 0.08000000000000007 0.6693833662929165
v -1.1806868494696146 0.08000000000000007 0.7889097308878346
v -1.0976748437750863 0.08000000000000007 0.9008384635123767
v -1.0040916292848976 0.08000000000000007 1.0040916292848971
v -0.9008384635123772 0.08000000000000007 1.0976748437750858
v -0.788909730887835 0.08000000000000007 1.180686849469614
v -0.6693833662929171 0.08000000000000007 1.2523281953746639
v -0.5434104739584283 0.08000000000000007 1.3119089361660268
v -0.41220424170133674 0.08000000000000007 1.3588552767397364
v -0.27702825726290276 0.08000000000000007 1.3927150981725869
v -0.1391843392679759 0.08000000000000007 1.4131623118745196
v 0 0 0
v 0 0.08 0
usemtl BrushedGold
s 1
f 1 65 66 2
f 2 66 67 3
f 3 67 68 4
f 4 68 69 5
f 5 69 70 6
f 6 70 71 7
f 7 71 72 8
f 8 72 73 9
f 9 73 74 10
f 10 74 75 11
f 11 75 76 12
f 12 76 77 13
f 13 77 78 14
f 14 78 79 15
f 15 79 80 16
f 16 80 81 17
f 17 81 82 18
f 18 82 83 19
f 19 83 84 20
f 20 84 85 21
f 21 85 86 22
f 22 86 87 23
f 23 87 88 24
f 24 88 89 25
f 25 89 90 26
f 26 90 91 27
f 27 91 92 28
f 28 92 93 29
f 29 93 94 30
f 30 94 95 31
f 31 95 96 32
f 32 96 97 33
f 33 97 98 34
f 34 98 99 35
f 35 99 100 36
f 36 100 101 37
f 37 101 102 38
f 38 102 103 39
f 39 103 104 40
f 40 104 105 41
f 41 105 106 42
f 42 106 107 43
f 43 107 108 44
f 44 108 109 45
f 45 109 110 46
f 46 110 111 47
f 47 111 112 48
f 48 112 113 49
f 49 113 114 50
f 50 114 115 51
f 51 115 116 52
f 52 116 117 53
f 53 117 118 54
f 54 118 119 55
f 55 119 120 56
f 56 120 121 57
f 57 121 122 58
f 58 122 123 59
f 59 123 124 60
f 60 124 125 61
f 61 125 126 62
f 62 126 127 63
f 63 127 128 64
f 64 128 65 1
f 65 129 130 66
f 66 130 131 67
f 67 131 132 68
f 68 132 133 69
f 69 133 134 70
f 70 134 135 71
f 71 135 136 72
f 72 136 137 73
f 73 137 138 74
f 74 138 139 75
f 75 139 140 76
f 76 140 141 77
f 77 141 142 78
f 78 142 143 79
f 79 143 144 80
f 80 144 145 81
f 81 145 146 82
f 82 146 147 83
f 83 147 148 84
f 84 148 149 85
f 85 149 150 86
f 86 150 151 87
f 87 151 152 88
f 88 152 153 89
f 89 153 154 90
f 90 154 155 91
f 91 155 156 92
f 92 156 157 93
f 93 157 158 94
f 94 158 159 95
f 95 159 160 96
f 96 160 161 97
f 97 161 162 98
f 98 162 163 99
f 99 163 164 100
f 100 164 165 101
f 101 165 166 102
f 102 166 167 103
f 103 167 168 104
f 104 168 169 105
f 105 169 170 106
f 106 170 171 107
f 107 171 172 108
f 108 172 173 109
f 109 173 174 110
f 110 174 175 111
f 111 175 176 112
f 112 176 177 113
f 113 177 178 114
f 114 178 179 115
f 115 179 180 116
f 116 180 181 117
f 117 181 182 118
f 118 182 183 119
f 119 183 184 120
f 120 184 185 121
f 121 185 186 122
f 122 186 187 123
f 123 187 188 124
f 124 188 189 125
f 125 189 190 126
f 126 190 191 127
f 127 191 192 128
f 128 192 129 65
f 129 193 194 130
f 130 194 195 131
f 131 195 196 132
f 132 196 197 133
f 133 197 198 134
f 134 198 199 135
f 135 199 200 136
f 136 200 201 137
f 137 201 202 138
f 138 202 203 139
f 139 203 204 140
f 140 204 205 141
f 141 205 206 142
f 142 206 207 143
f 143 207 208 144
f 144 208 209 145
f 145 209 210 146
f 146 210 211 147
f 147 211 212 148
f 148 212 213 149
f 149 213 214 150
f 150 214 215 151
f 151 215 216 152
f 152 216 217 153
f 153 217 218 154
f 154 218 219 155
f 155 219 220 156
f 156 220 221 157
f 157 221 222 158
f 158 222 223 159
f 159 223 224 160
f 160 224 225 161
f 161 225 226 162
f 162 226 227 163
f 163 227 228 164
f 164 228 229 165
f 165 229 230 166
f 166 230 231 167
f 167 231 232 168
f 168 232 233 169
f 169 233 234 170
f 170 234 235 171
f 171 235 236 172
f 172 236 237 173
f 173 237 238 174
f 174 238 239 175
f 175 239 240 176
f 176 240 241 177
f 177 241 242 178
f 178 242 243 179
f 179 243 244 180
f 180 244 245 181
f 181 245 246 182
f 182 246 247 183
f 183 247 248 184
f 184 248 249 185
f 185 249 250 186
f 186 250 251 187
f 187 251 252 188
f 188 252 253 189
f 189 253 254 190
f 190 254 255 191
f 191 255 256 192
f 192 256 193 129
f 193 257 258 194
f 194 258 259 195
f 195 259 260 196
f 196 260 261 197
f 197 261 262 198
f 198 262 263 199
f 199 263 264 200
f 200 264 265 201
f 201 265 266 202
f 202 266 267 203
f 203 267 268 204
f 204 268 269 205
f 205 269 270 206
f 206 270 271 207
f 207 271 272 208
f 208 272 273 209
f 209 273 274 210
f 210 274 275 211
f 211 275 276 212
f 212 276 277 213
f 213 277 278 214
f 214 278 279 215
f 215 279 280 216
f 216 280 281 217
f 217 281 282 218
f 218 282 283 219
f 219 283 284 220
f 220 284 285 221
f 221 285 286 222
f 222 286 287 223
f 223 287 288 224
f 224 288 289 225
f 225 289 290 226
f 226 290 291 227
f 227 291 292 228
f 228 292 293 229
f 229 293 294 230
f 230 294 295 231
f 231 295 296 232
f 232 296 297 233
f 233 297 298 234
f 234 298 299 235
f 235 299 300 236
f 236 300 301 237
f 237 301 302 238
f 238 302 303 239
f 239 303 304 240
f 240 304 305 241
f 241 305 306 242
f 242 306 307 243
f 243 307 308 244
f 244 308 309 245
f 245 309 310 246
f 246 310 311 247
f 247 311 312 248
f 248 312 313 249
f 249 313 314 250
f 250 314 315 251
f 251 315 316 252
f 252 316 317 253
f 253 317 318 254
f 254 318 319 255
f 255 319 320 256
f 256 320 257 193
f 257 321 322 258
f 258 322 323 259
f 259 323 324 260
f 260 324 325 261
f 261 325 326 262
f 262 326 327 263
f 263 327 328 264
f 264 328 329 265
f 265 329 330 266
f 266 330 331 267
f 267 331 332 268
f 268 332 333 269
f 269 333 334 270
f 270 334 335 271
f 271 335 336 272
f 272 336 337 273
f 273 337 338 274
f 274 338 339 275
f 275 339 340 276
f 276 340 341 277
f 277 341 342 278
f 278 342 343 279
f 279 343 344 280
f 280 344 345 281
f 281 345 346 282
f 282 346 347 283
f 283 347 348 284
f 284 348 349 285
f 285 349 350 286
f 286 350 351 287
f 287 351 352 288
f 288 352 353 289
f 289 353 354 290
f 290 354 355 291
f 291 355 356 292
f 292 356 357 293
f 293 357 358 294
f 294 358 359 295
f 295 359 360 296
f 296 360 361 297
f 297 361 362 298
f 298 362 363 299
f 299 363 364 300
f 300 364 365 301
f 301 365 366 302
f 302 366 367 303
f 303 367 368 304
f 304 368 369 305
f 305 369 370 306
f 306 370 371 307
f 307 371 372 308
f 308 372 373 309
f 309 373 374 310
f 310 374 375 311
f 311 375 376 312
f 312 376 377 313
f 313 377 378 314
f 314 378 379 315
f 315 379 380 316
f 316 380 381 317
f 317 381 382 318
f 318 382 383 319
f 319 383 384 320
f 320 384 321 257
f 321 385 386 322
f 322 386 387 323
f 323 387 388 324
f 324 388 389 325
f 325 389 390 326
f 326 390 391 327
f 327 391 392 328
f 328 392 393 329
f 329 393 394 330
f 330 394 395 331
f 331 395 396 332
f 332 396 397 333
f 333 397 398 334
f 334 398 399 335
f 335 399 400 336
f 336 400 401 337
f 337 401 402 338
f 338 402 403 339
f 339 403 404 340
f 340 404 405 341
f 341 405 406 342
f 342 406 407 343
f 343 407 408 344
f 344 408 409 345
f 345 409 410 346
f 346 410 411 347
f 347 411 412 348
f 348 412 413 349
f 349 413 414 350
f 350 414 415 351
f 351 415 416 352
f 352 416 417 353
f 353 417 418 354
f 354 418 419 355
f 355 419 420 356
f 356 420 421 357
f 357 421 422 358
f 358 422 423 359
f 359 423 424 360
f 360 424 425 361
f 361 425 426 362
f 362 426 427 363
f 363 427 428 364
f 364 428 429 365
f 365 429 430 366
f 366 430 431 367
f 367 431 432 368
f 368 432 433 369
f 369 433 434 370
f 370 434 435 371
f 371 435 436 372
f 372 436 437 373
f 373 437 438 374
f 374 438 439 375
f 375 439 440 376
f 376 440 441 377
f 377 441 442 378
f 378 442 443 379
f 379 443 444 380
f 380 444 445 381
f 381 445 446 382
f 382 446 447 383
f 383 447 448 384
f 384 448 385 321
f 385 449 450 386
f 386 450 451 387
f 387 451 452 388
f 388 452 453 389
f 389 453 454 390
f 390 454 455 391
f 391 455 456 392
f 392 456 457 393
f 393 457 458 394
f 394 458 459 395
f 395 459 460 396
f 396 460 461 397
f 397 461 462 398
f 398 462 463 399
f 399 463 464 400
f 400 464 465 401
f 401 465 466 402
f 402 466 467 403
f 403 467 468 404
f 404 468 469 405
f 405 469 470 406
f 406 470 471 407
f 407 471 472 408
f 408 472 473 409
f 409 473 474 410
f 410 474 475 411
f 411 475 476 412
f 412 476 477 413
f 413 477 478 414
f 414 478 479 415
f 415 479 480 416
f 416 480 481 417
f 417 481 482 418
f 418 482 483 419
f 419 483 484 420
f 420 484 485 421
f 421 485 486 422
f 422 486 487 423
f 423 487 488 424
f 424 488 489 425
f 425 489 490 426
f 426 490 491 427
f 427 491 492 428
f 428 492 493 429
f 429 493 494 430
f 430 494 495 431
f 431 495 496 432
f 432 496 497 433
f 433 497 498 434
f 434 498 499 435
f 435 499 500 436
f 436 500 501 437
f 437 501 502 438
f 438 502 503 439
f 439 503 504 440
f 440 504 505 441
f 441 505 506 442
f 442 506 507 443
f 443 507 508 444
f 444 508 509 445
f 445 509 510 446
f 446 510 511 447
f 447 511 512 448
f 448 512 449 385
f 449 513 514 450
f 450 514 515 451
f 451 515 516 452
f 452 516 517 453
f 453 517 518 454
f 454 518 519 455
f 455 519 520 456
f 456 520 521 457
f 457 521 522 458
f 458 522 523 459
f 459 523 524 460
f 460 524 525 461
f 461 525 526 462
f 462 526 527 463
f 463 527 528 464
f 464 528 529 465
f 465 529 530 466
f 466 530 531 467
f 467 531 532 468
f 468 532 533 469
f 469 533 534 470
f 470 534 535 471
f 471 535 536 472
f 472 536 537 473
f 473 537 538 474
f 474 538 539 475
f 475 539 540 476
f 476 540 541 477
f 477 541 542 478
f 478 542 543 479
f 479 543 544 480
f 480 544 545 481
f 481 545 546 482
f 482 546 547 483
f 483 547 548 484
f 484 548 549 485
f 485 549 550 486
f 486 550 551 487
f 487 551 552 488
f 488 552 553 489
f 489 553 554 490
f 490 554 555 491
f 491 555 556 492
f 492 556 557 493
f 493 557 558 494
f 494 558 559 495
f 495 559 560 496
f 496 560 561 497
f 497 561 562 498
f 498 562 563 499
f 499 563 564 500
f 500 564 565 501
f 501 565 566 502
f 502 566 567 503
f 503 567 568 504
f 504 568 569 505
f 505 569 570 506
f 506 570 571 507
f 507 571 572 508
f 508 572 573 509
f 509 573 574 510
f 510 574 575 511
f 511 575 576 512
f 512 576 513 449
f 513 577 578 514
f 514 578 579 515
f 515 579 580 516
f 516 580 581 517
f 517 581 582 518
f 518 582 583 519
f 519 583 584 520
f 520 584 585 521
f 521 585 586 522
f 522 586 587 523
f 523 587 588 524
f 524 588 589 525
f 525 589 590 526
f 526 590 591 527
f 527 591 592 528
f 528 592 593 529
f 529 593 594 530
f 530 594 595 531
f 531 595 596 532
f 532 596 597 533
f 533 597 598 534
f 534 598 599 535
f 535 599 600 536
f 536 600 601 537
f 537 601 602 538
f 538 602 603 539
f 539 603 604 540
f 540 604 605 541
f 541 605 606 542
f 542 606 607 543
f 543 607 608 544
f 544 608 609 545
f 545 609 610 546
f 546 610 611 547
f 547 611 612 548
f 548 612 613 549
f 549 613 614 550
f 550 614 615 551
f 551 615 616 552
f 552 616 617 553
f 553 617 618 554
f 554 618 619 555
f 555 619 620 556
f 556 620 621 557
f 557 621 622 558
f 558 622 623 559
f 559 623 624 560
f 560 624 625 561
f 561 625 626 562
f 562 626 627 563
f 563 627 628 564
f 564 628 629 565
f 565 629 630 566
f 566 630 631 567
f 567 631 632 568
f 568 632 633 569
f 569 633 634 570
f 570 634 635 571
f 571 635 636 572
f 572 636 637 573
f 573 637 638 574
f 574 638 639 575
f 575 639 640 576
f 576 640 577 513
f 642 706 705 641
f 643 707 706 642
f 644 708 707 643
f 645 709 708 644
f 646 710 709 645
f 647 711 710 646
f 648 712 711 647
f 649 713 712 648
f 650 714 713 649
f 651 715 714 650
f 652 716 715 651
f 653 717 716 652
f 654 718 717 653
f 655 719 718 654
f 656 720 719 655
f 657 721 720 656
f 658 722 721 657
f 659 723 722 658
f 660 724 723 659
f 661 725 724 660
f 662 726 725 661
f 663 727 726 662
f 664 728 727 663
f 665 729 728 664
f 666 730 729 665
f 667 731 730 666
f 668 732 731 667
f 669 733 732 668
f 670 734 733 669
f 671 735 734 670
f 672 736 735 671
f 673 737 736 672
f 674 738 737 673
f 675 739 738 674
f 676 740 739 675
f 677 741 740 676
f 678 742 741 677
f 679 743 742 678
f 680 744 743 679
f 681 745 744 680
f 682 746 745 681
f 683 747 746 682
f 684 748 747 683
f 685 749 748 684
f 686 750 749 685
f 687 751 750 686
f 688 752 751 687
f 689 753 752 688
f 690 754 753 689
f 691 755 754 690
f 692 756 755 691
f 693 757 756 692
f 694 758 757 693
f 695 759 758 694
f 696 760 759 695
f 697 761 760 696
f 698 762 761 697
f 699 763 762 698
f 700 764 763 699
f 701 765 764 700
f 702 766 765 701
f 703 767 766 702
f 704 768 767 703
f 641 705 768 704
f 706 770 769 705
f 707 771 770 706
f 708 772 771 707
f 709 773 772 708
f 710 774 773 709
f 711 775 774 710
f 712 776 775 711
f 713 777 776 712
f 714 778 777 713
f 715 779 778 714
f 716 780 779 715
f 717 781 780 716
f 718 782 781 717
f 719 783 782 718
f 720 784 783 719
f 721 785 784 720
f 722 786 785 721
f 723 787 786 722
f 724 788 787 723
f 725 789 788 724
f 726 790 789 725
f 727 791 790 726
f 728 792 791 727
f 729 793 792 728
f 730 794 793 729
f 731 795 794 730
f 732 796 795 731
f 733 797 796 732
f 734 798 797 733
f 735 799 798 734
f 736 800 799 735
f 737 801 800 736
f 738 802 801 737
f 739 803 802 738
f 740 804 803 739
f 741 805 804 740
f 742 806 805 741
f 743 807 806 742
f 744 808 807 743
f 745 809 808 744
f 746 810 809 745
f 747 811 810 746
f 748 812 811 747
f 749 813 812 748
f 750 814 813 749
f 751 815 814 750
f 752 816 815 751
f 753 817 816 752
f 754 818 817 753
f 755 819 818 754
f 756 820 819 755
f 757 821 820 756
f 758 822 821 757
f 759 823 822 758
f 760 824 823 759
f 761 825 824 760
f 762 826 825 761
f 763 827 826 762
f 764 828 827 763
f 765 829 828 764
f 766 830 829 765
f 767 831 830 766
f 768 832 831 767
f 705 769 832 768
f 770 834 833 769
f 771 835 834 770
f 772 836 835 771
f 773 837 836 772
f 774 838 837 773
f 775 839 838 774
f 776 840 839 775
f 777 841 840 776
f 778 842 841 777
f 779 843 842 778
f 780 844 843 779
f 781 845 844 780
f 782 846 845 781
f 783 847 846 782
f 784 848 847 783
f 785 849 848 784
f 786 850 849 785
f 787 851 850 786
f 788 852 851 787
f 789 853 852 788
f 790 854 853 789
f 791 855 854 790
f 792 856 855 791
f 793 857 856 792
f 794 858 857 793
f 795 859 858 794
f 796 860 859 795
f 797 861 860 796
f 798 862 861 797
f 799 863 862 798
f 800 864 863 799
f 801 865 864 800
f 802 866 865 801
f 803 867 866 802
f 804 868 867 803
f 805 869 868 804
f 806 870 869 805
f 807 871 870 806
f 808 872 871 807
f 809 873 872 808
f 810 874 873 809
f 811 875 874 810
f 812 876 875 811
f 813 877 876 812
f 814 878 877 813
f 815 879 878 814
f 816 880 879 815
f 817 881 880 816
f 818 882 881 817
f 819 883 882 818
f 820 884 883 819
f 821 885 884 820
f 822 886 885 821
f 823 887 886 822
f 824 888 887 823
f 825 889 888 824
f 826 890 889 825
f 827 891 890 826
f 828 892 891 827
f 829 893 892 828
f 830 894 893 829
f 831 895 894 830
f 832 896 895 831
f 769 833 896 832
f 834 898 897 833
f 835 899 898 834
f 836 900 899 835
f 837 901 900 836
f 838 902 901 837
f 839 903 902 838
f 840 904 903 839
f 841 905 904 840
f 842 906 905 841
f 843 907 906 842
f 844 908 907 843
f 845 909 908 844
f 846 910 909 845
f 847 911 910 846
f 848 912 911 847
f 849 913 912 848
f 850 914 913 849
f 851 915 914 850
f 852 916 915 851
f 853 917 916 852
f 854 918 917 853
f 855 919 918 854
f 856 920 919 855
f 857 921 920 856
f 858 922 921 857
f 859 923 922 858
f 860 924 923 859
f 861 925 924 860
f 862 926 925 861
f 863 927 926 862
f 864 928 927 863
f 865 929 928 864
f 866 930 929 865
f 867 931 930 866
f 868 932 931 867
f 869 933 932 868
f 870 934 933 869
f 871 935 934 870
f 872 936 935 871
f 873 937 936 872
f 874 938 937 873
f 875 939 938 874
f 876 940 939 875
f 877 941 940 876
f 878 942 941 877
f 879 943 942 878
f 880 944 943 879
f 881 945 944 880
f 882 946 945 881
f 883 947 946 882
f 884 948 947 883
f 885 949 948 884
f 886 950 949 885
f 887 951 950 886
f 888 952 951 887
f 889 953 952 888
f 890 954 953 889
f 891 955 954 890
f 892 956 955 891
f 893 957 956 892
f 894 958 957 893
f 895 959 958 894
f 896 960 959 895
f 833 897 960 896
f 898 962 961 897
f 899 963 962 898
f 900 964 963 899
f 901 965 964 900
f 902 966 965 901
f 903 967 966 902
f 904 968 967 903
f 905 969 968 904
f 906 970 969 905
f 907 971 970 906
f 908 972 971 907
f 909 973 972 908
f 910 974 973 909
f 911 975 974 910
f 912 976 975 911
f 913 977 976 912
f 914 978 977 913
f 915 979 978 914
f 916 980 979 915
f 917 981 980 916
f 918 982 981 917
f 919 983 982 918
f 920 984 983 919
f 921 985 984 920
f 922 986 985 921
f 923 987 986 922
f 924 988 987 923
f 925 989 988 924
f 926 990 989 925
f 927 991 990 926
f 928 992 991 927
f 929 993 992 928
f 930 994 993 929
f 931 995 994 930
f 932 996 995 931
f 933 997 996 932
f 934 998 997 933
f 935 999 998 934
f 936 1000 999 935
f 937 1001 1000 936
f 938 1002 1001 937
f 939 1003 1002 938
f 940 1004 1003 939
f 941 1005 1004 940
f 942 1006 1005 941
f 943 1007 1006 942
f 944 1008 1007 943
f 945 1009 1008 944
f 946 1010 1009 945
f 947 1011 1010 946
f 948 1012 1011 947
f 949 1013 1012 948
f 950 1014 1013 949
f 951 1015 1014 950
f 952 1016 1015 951
f 953 1017 1016 952
f 954 1018 1017 953
f 955 1019 1018 954
f 956 1020 1019 955
f 957 1021 1020 956
f 958 1022 1021 957
f 959 1023 1022 958
f 960 1024 1023 959
f 897 961 1024 960
f 962 1026 1025 961
f 963 1027 1026 962
f 964 1028 1027 963
f 965 1029 1028 964
f 966 1030 1029 965
f 967 1031 1030 966
f 968 1032 1031 967
f 969 1033 1032 968
f 970 1034 1033 969
f 971 1035 1034 970
f 972 1036 1035 971
f 973 1037 1036 972
f 974 1038 1037 973
f 975 1039 1038 974
f 976 1040 1039 975
f 977 1041 1040 976
f 978 1042 1041 977
f 979 1043 1042 978
f 980 1044 1043 979
f 981 1045 1044 980
f 982 1046 1045 981
f 983 1047 1046 982
f 984 1048 1047 983
f 985 1049 1048 984
f 986 1050 1049 985
f 987 1051 1050 986
f 988 1052 1051 987
f 989 1053 1052 988
f 990 1054 1053 989
f 991 1055 1054 990
f 992 1056 1055 991
f 993 1057 1056 992
f 994 1058 1057 993
f 995 1059 1058 994
f 996 1060 1059 995
f 997 1061 1060 996
f 998 1062 1061 997
f 999 1063 1062 998
f 1000 1064 1063 999
f 1001 1065 1064 1000
f 1002 1066 1065 1001
f 1003 1067 1066 1002
f 1004 1068 1067 1003
f 1005 1069 1068 1004
f 1006 1070 1069 1005
f 1007 1071 1070 1006
f 1008 1072 1071 1007
f 1009 1073 1072 1008
f 1010 1074 1073 1009
f 1011 1075 1074 1010
f 1012 1076 1075 1011
f 1013 1077 1076 1012
f 1014 1078 1077 1013
f 1015 1079 1078 1014
f 1016 1080 1079 1015
f 1017 1081 1080 1016
f 1018 1082 1081 1017
f 1019 1083 1082 1018
f 1020 1084 1083 1019
f 1021 1085 1084 1020
f 1022 1086 1085 1021
f 1023 1087 1086 1022
f 1024 1088 1087 1023
f 961 1025 1088 1024
f 1026 1090 1089 1025
f 1027 1091 1090 1026
f 1028 1092 1091 1027
f 1029 1093 1092 1028
f 1030 1094 1093 1029
f 1031 1095 1094 1030
f 1032 1096 1095 1031
f 1033 1097 1096 1032
f 1034 1098 1097 1033
f 1035 1099 1098 1034
f 1036 1100 1099 1035
f 1037 1101 1100 1036
f 1038 1102 1101 1037
f 1039 1103 1102 1038
f 1040 1104 1103 1039
f 1041 1105 1104 1040
f 1042 1106 1105 1041
f 1043 1107 1106 1042
f 1044 1108 1107 1043
f 1045 1109 1108 1044
f 1046 1110 1109 1045
f 1047 1111 1110 1046
f 1048 1112 1111 1047
f 1049 1113 1112 1048
f 1050 1114 1113 1049
f 1051 1115 1114 1050
f 1052 1116 1115 1051
f 1053 1117 1116 1052
f 1054 1118 1117 1053
f 1055 1119 1118 1054
f 1056 1120 1119 1055
f 1057 1121 1120 1056
f 1058 1122 1121 1057
f 1059 1123 1122 1058
f 1060 1124 1123 1059
f 1061 1125 1124 1060
f 1062 1126 1125 1061
f 1063 1127 1126 1062
f 1064 1128 1127 1063
f 1065 1129 1128 1064
f 1066 1130 1129 1065
f 1067 1131 1130 1066
f 1068 1132 1131 1067
f 1069 1133 1132 1068
f 1070 1134 1133 1069
f 1071 1135 1134 1070
f 1072 1136 1135 1071
f 1073 1137 1136 1072
f 1074 1138 1137 1073
f 1075 1139 1138 1074
f 1076 1140 1139 1075
f 1077 1141 1140 1076
f 1078 1142 1141 1077
f 1079 1143 1142 1078
f 1080 1144 1143 1079
f 1081 1145 1144 1080
f 1082 1146 1145 1081
f 1083 1147 1146 1082
f 1084 1148 1147 1083
f 1085 1149 1148 1084
f 1086 1150 1149 1085
f 1087 1151 1150 1086
f 1088 1152 1151 1087
f 1025 1089 1152 1088
f 1090 1154 1153 1089
f 1091 1155 1154 1090
f 1092 1156 1155 1091
f 1093 1157 1156 1092
f 1094 1158 1157 1093
f 1095 1159 1158 1094
f 1096 1160 1159 1095
f 1097 1161 1160 1096
f 1098 1162 1161 1097
f 1099 1163 1162 1098
f 1100 1164 1163 1099
f 1101 1165 1164 1100
f 1102 1166 1165 1101
f 1103 1167 1166 1102
f 1104 1168 1167 1103
f 1105 1169 1168 1104
f 1106 1170 1169 1105
f 1107 1171 1170 1106
f 1108 1172 1171 1107
f 1109 1173 1172 1108
f 1110 1174 1173 1109
f 1111 1175 1174 1110
f 1112 1176 1175 1111
f 1113 1177 1176 1112
f 1114 1178 1177 1113
f 1115 1179 1178 1114
f 1116 1180 1179 1115
f 1117 1181 1180 1116
f 1118 1182 1181 1117
f 1119 1183 1182 1118
f 1120 1184 1183 1119
f 1121 1185 1184 1120
f 1122 1186 1185 1121
f 1123 1187 1186 1122
f 1124 1188 1187 1123
f 1125 1189 1188 1124
f 1126 1190 1189 1125
f 1127 1191 1190 1126
f 1128 1192 1191 1127
f 1129 1193 1192 1128
f 1130 1194 1193 1129
f 1131 1195 1194 1130
f 1132 1196 1195 1131
f 1133 1197 1196 1132
f 1134 1198 1197 1133
f 1135 1199 1198 1134
f 1136 1200 1199 1135
f 1137 1201 1200 1136
f 1138 1202 1201 1137
f 1139 1203 1202 1138
f 1140 1204 1203 1139
f 1141 1205 1204 1140
f 1142 1206 1205 1141
f 1143 1207 1206 1142
f 1144 1208 1207 1143
f 1145 1209 1208 1144
f 1146 1210 1209 1145
f 1147 1211 1210 1146
f 1148 1212 1211 1147
f 1149 1213 1212 1148
f 1150 1214 1213 1149
f 1151 1215 1214 1150
f 1152 1216 1215 1151
f 1089 1153 1216 1152
f 1154 1218 1217 1153
f 1155 1219 1218 1154
f 1156 1220 1219 1155
f 1157 1221 1220 1156
f 1158 1222 1221 1157
f 1159 1223 1222 1158
f 1160 1224 1223 1159
f 1161 1225 1224 1160
f 1162 1226 1225 1161
f 1163 1227 1226 1162
f 1164 1228 1227 1163
f 1165 1229 1228 1164
f 1166 1230 1229 1165
f 1167 1231 1230 1166
f 1168 1232 1231 1167
f 1169 1233 1232 1168
f 1170 1234 1233 1169
f 1171 1235 1234 1170
f 1172 1236 1235 1171
f 1173 1237 1236 1172
f 1174 1238 1237 1173
f 1175 1239 1238 1174
f 1176 1240 1239 1175
f 1177 1241 1240 1176
f 1178 1242 1241 1177
f 1179 1243 1242 1178
f 1180 1244 1243 1179
f 1181 1245 1244 1180
f 1182 1246 1245 1181
f 1183 1247 1246 1182
f 1184 1248 1247 1183
f 1185 1249 1248 1184
f 1186 1250 1249 1185
f 1187 1251 1250 1186
f 1188 1252 1251 1187
f 1189 1253 1252 1188
f 1190 1254 1253 1189
f 1191 1255 1254 1190
f 1192 1256 1255 1191
f 1193 1257 1256 1192
f 1194 1258 1257 1193
f 1195 1259 1258 1194
f 1196 1260 1259 1195
f 1197 1261 1260 1196
f 1198 1262 1261 1197
f 1199 1263 1262 1198
f 1200 1264 1263 1199
f 1201 1265 1264 1200
f 1202 1266 1265 1201
f 1203 1267 1266 1202
f 1204 1268 1267 1203
f 1205 1269 1268 1204
f 1206 1270 1269 1205
f 1207 1271 1270 1206
f 1208 1272 1271 1207
f 1209 1273 1272 1208
f 1210 1274 1273 1209
f 1211 1275 1274 1210
f 1212 1276 1275 1211
f 1213 1277 1276 1212
f 1214 1278 1277 1213
f 1215 1279 1278 1214
f 1216 1280 1279 1215
f 1153 1217 1280 1216
f 1 2 642 641
f 2 3 643 642
f 3 4 644 643
f 4 5 645 644
f 5 6 646 645
f 6 7 647 646
f 7 8 648 647
f 8 9 649 648
f 9 10 650 649
f 10 11 651 650
f 11 12 652 651
f 12 13 653 652
f 13 14 654 653
f 14 15 655 654
f 15 16 656 655
f 16 17 657 656
f 17 18 658 657
f 18 19 659 658
f 19 20 660 659
f 20 21 661 660
f 21 22 662 661
f 22 23 663 662
f 23 24 664 663
f 24 25 665 664
f 25 26 666 665
f 26 27 667 666
f 27 28 668 667
f 28 29 669 668
f 29 30 670 669
f 30 31 671 670
f 31 32 672 671
f 32 33 673 672
f 33 34 674 673
f 34 35 675 674
f 35 36 676 675
f 36 37 677 676
f 37 38 678 677
f 38 39 679 678
f 39 40 680 679
f 40 41 681 680
f 41 42 682 681
f 42 43 683 682
f 43 44 684 683
f 44 45 685 684
f 45 46 686 685
f 46 47 687 686
f 47 48 688 687
f 48 49 689 688
f 49 50 690 689
f 50 51 691 690
f 51 52 692 691
f 52 53 693 692
f 53 54 694 693
f 54 55 695 694
f 55 56 696 695
f 56 57 697 696
f 57 58 698 697
f 58 59 699 698
f 59 60 700 699
f 60 61 701 700
f 61 62 702 701
f 62 63 703 702
f 63 64 704 703
f 64 1 641 704
f 578 577 1281
f 579 578 1281
f 580 579 1281
f 581 580 1281
f 582 581 1281
f 583 582 1281
f 584 583 1281
f 585 584 1281
f 586 585 1281
f 587 586 1281
f 588 587 1281
f 589 588 1281
f 590 589 1281
f 591 590 1281
f 592 591 1281
f 593 592 1281
f 594 593 1281
f 595 594 1281
f 596 595 1281
f 597 596 1281
f 598 597 1281
f 599 598 1281
f 600 599 1281
f 601 600 1281
f 602 601 1281
f 603 602 1281
f 604 603 1281
f 605 604 1281
f 606 605 1281
f 607 606 1281
f 608 607 1281
f 609 608 1281
f 610 609 1281
f 611 610 1281
f 612 611 1281
f 613 612 1281
f 614 613 1281
f 615 614 1281
f 616 615 1281
f 617 616 1281
f 618 617 1281
f 619 618 1281
f 620 619 1281
f 621 620 1281
f 622 621 1281
f 623 622 1281
f 624 623 1281
f 625 624 1281
f 626 625 1281
f 627 626 1281
f 628 627 1281
f 629 628 1281
f 630 629 1281
f 631 630 1281
f 632 631 1281
f 633 632 1281
f 634 633 1281
f 635 634 1281
f 636 635 1281
f 637 636 1281
f 638 637 1281
f 639 638 1281
f 640 639 1281
f 577 640 1281
f 1282 1217 1218
f 1282 1218 1219
f 1282 1219 1220
f 1282 1220 1221
f 1282 1221 1222
f 1282 1222 1223
f 1282 1223 1224
f 1282 1224 1225
f 1282 1225 1226
f 1282 1226 1227
f 1282 1227 1228
f 1282 1228 1229
f 1282 1229 1230
f 1282 1230 1231
f 1282 1231 1232
f 1282 1232 1233
f 1282 1233 1234
f 1282 1234 1235
f 1282 1235 1236
f 1282 1236 1237
f 1282 1237 1238
f 1282 1238 1239
f 1282 1239 1240
f 1282 1240 1241
f 1282 1241 1242
f 1282 1242 1243
f 1282 1243 1244
f 1282 1244 1245
f 1282 1245 1246
f 1282 1246 1247
f 1282 1247 1248
f 1282 1248 1249
f 1282 1249 1250
f 1282 1250 1251
f 1282 1251 1252
f 1282 1252 1253
f 1282 1253 1254
f 1282 1254 1255
f 1282 1255 1256
f 1282 1256 1257
f 1282 1257 1258
f 1282 1258 1259
f 1282 1259 1260
f 1282 1260 1261
f 1282 1261 1262
f 1282 1262 1263
f 1282 1263 1264
f 1282 1264 1265
f 1282 1265 1266
f 1282 1266 1267
f 1282 1267 1268
f 1282 1268 1269
f 1282 1269 1270
f 1282 1270 1271
f 1282 1271 1272
f 1282 1272 1273
f 1282 1273 1274
f 1282 1274 1275
f 1282 1275 1276
f 1282 1276 1277
f 1282 1277 1278
f 1282 1278 1279
f 1282 1279 1280
f 1282 1280 1217
